<svg width="214" height="70" viewBox="0 0 214 70" fill="none" xmlns="http://www.w3.org/2000/svg">
<g clip-path="url(#clip0_63_1137)">
<path d="M111.581 29.7819L109.364 24.0837H100.03L97.8403 29.7819H95.7146L102.97 11.5242C103.314 10.6855 103.89 10.28 104.698 10.28C105.505 10.28 106.109 10.6855 106.426 11.5242L113.685 29.7733L111.581 29.7819ZM104.668 12.1111L100.693 22.355H108.673L104.668 12.1111Z" fill="#3C3744" fill-opacity="0.6"/>
<path d="M128.894 26.1091C128.894 28.5676 127.799 29.782 125.179 29.782H119.675C116.912 29.782 115.785 28.6252 115.785 26.1091V9.50757H117.601V15.1182H125.147C127.797 15.1182 128.892 16.3048 128.892 18.9362L128.894 26.1091ZM127.079 19.1667C127.079 17.3164 126.677 16.7381 124.862 16.7381H117.603V26.0515C117.603 27.7588 118.149 28.1856 119.907 28.1856H124.862C126.735 28.1856 127.079 27.7246 127.079 26.0173V19.1667Z" fill="#3C3744" fill-opacity="0.6"/>
<path d="M145.747 26.109C145.747 28.5676 144.594 29.7819 141.944 29.7819H136.615C133.879 29.7819 132.754 28.6252 132.754 26.109V18.9362C132.754 16.3624 133.964 15.1182 136.644 15.1182H141.916C144.565 15.1182 145.742 16.3048 145.742 18.9362L145.747 26.109ZM143.931 19.1666C143.931 17.3163 143.527 16.738 141.714 16.738H136.825C134.98 16.738 134.597 17.2865 134.597 19.109V26.0514C134.597 27.7865 135.088 28.1855 136.817 28.1855H141.742C143.585 28.1855 143.931 27.7246 143.931 26.0173V19.1666Z" fill="#3C3744" fill-opacity="0.6"/>
<path d="M162.684 31.4017C162.684 34.2935 161.504 35.3926 158.537 35.3926H149.779V33.8005H158.133C160.295 33.8005 160.871 33.0791 160.871 31.3142V29.7819H153.497C150.733 29.7819 149.607 28.6252 149.607 26.109V18.9362C149.607 16.3624 150.846 15.1182 153.524 15.1182H158.941C161.589 15.1182 162.684 16.3048 162.684 18.9362V31.4017ZM160.871 28.2005V19.1666C160.871 18.0996 160.696 17.4316 160.322 17.1435C159.948 16.8554 159.047 16.738 157.672 16.738H154.696C153.284 16.738 152.391 16.8831 152.015 17.1435C151.639 17.4038 151.439 18.0974 151.439 19.109V24.9801C151.354 26.6298 151.613 27.3532 151.958 27.7865C152.132 28.0169 152.967 28.1621 153.456 28.1621C153.716 28.1898 154.147 28.1898 154.781 28.1898L160.871 28.2005Z" fill="#3C3744" fill-opacity="0.6"/>
<path d="M167.092 16.738V15.1182H175.417C178.097 15.1182 179.364 16.1596 179.364 18.8209V26.1368C179.364 28.5676 178.182 29.7819 175.793 29.7819H170.347C167.726 29.7819 166.44 28.5974 166.44 26.2499V23.9685C166.44 21.5099 167.794 20.2956 170.479 20.2956H177.564V18.7334C177.564 17.2011 176.926 16.738 175.115 16.738H167.092ZM177.549 21.8855H170.747C168.931 21.8855 168.24 22.4639 168.24 24.1712V26.1368C168.24 27.7566 168.846 28.1898 170.602 28.1898H175.442C177.2 28.1898 177.544 27.5496 177.544 25.8422L177.549 21.8855Z" fill="#3C3744" fill-opacity="0.6"/>
<path d="M183.254 18.9362C183.254 16.3048 184.347 15.1182 186.997 15.1182H194.545V9.50757H196.359V26.1091C196.359 28.6252 195.236 29.782 192.471 29.782H186.97C184.347 29.782 183.254 28.5676 183.254 26.1091V18.9362ZM185.097 26.0216C185.097 27.7289 185.414 28.1899 187.286 28.1899H192.241C193.997 28.1899 194.545 27.7865 194.545 26.0557V16.7381H187.286C185.471 16.7381 185.097 17.2887 185.097 19.1667V26.0216Z" fill="#3C3744" fill-opacity="0.6"/>
<path d="M213.241 26.109C213.241 28.5676 212.089 29.7819 209.438 29.7819H204.109C201.373 29.7819 200.249 28.6252 200.249 26.109V18.9362C200.249 16.3624 201.458 15.1182 204.139 15.1182H209.41C212.059 15.1182 213.237 16.3048 213.237 18.9362L213.241 26.109ZM211.425 19.1666C211.425 17.3163 211.022 16.738 209.208 16.738H204.319C202.476 16.738 202.1 17.2886 202.1 19.109V26.0514C202.1 27.7865 202.591 28.1855 204.319 28.1855H209.244C211.087 28.1855 211.434 27.7246 211.434 26.0173L211.425 19.1666Z" fill="#3C3744" fill-opacity="0.6"/>
<path d="M111.84 54.7216C111.84 57.8438 110.229 59.2332 106.915 59.2332H96.7753V39.9426H106.979C110.407 39.9426 111.846 41.2722 111.846 44.5417L111.84 54.7216ZM98.8202 41.7353V57.4405H106.709C109.047 57.4405 109.821 56.7448 109.821 54.6341V44.7146C109.821 42.4887 109.157 41.7268 106.766 41.7268L98.8202 41.7353Z" fill="#3C3744" fill-opacity="0.6"/>
<path d="M116.68 42.0832C116.493 42.0857 116.307 42.051 116.133 41.9811C115.959 41.9111 115.8 41.8072 115.667 41.6755C115.533 41.5438 115.426 41.3868 115.353 41.2135C115.28 41.0403 115.242 40.8543 115.241 40.6661C115.24 40.4773 115.276 40.29 115.348 40.1156C115.42 39.9412 115.527 39.7831 115.661 39.6509C115.795 39.5186 115.955 39.4149 116.13 39.3458C116.305 39.2768 116.492 39.2439 116.68 39.2491C116.867 39.2444 117.052 39.2778 117.226 39.3474C117.399 39.4169 117.557 39.5211 117.689 39.6537C117.821 39.7862 117.924 39.9443 117.994 40.1183C118.063 40.2924 118.096 40.4788 118.092 40.6661C118.094 40.8529 118.059 41.0382 117.989 41.2111C117.919 41.3841 117.815 41.5412 117.683 41.6733C117.552 41.8053 117.395 41.9096 117.223 41.98C117.051 42.0504 116.866 42.0855 116.68 42.0832ZM117.573 59.2332H115.76V44.5695H117.573V59.2332Z" fill="#3C3744" fill-opacity="0.6"/>
<path d="M134.54 60.8531C134.54 63.7449 133.36 64.844 130.393 64.844H121.635V63.2519H129.989C132.149 63.2519 132.725 62.5306 132.725 60.7656V59.2333H125.351C122.587 59.2333 121.463 58.0766 121.463 55.5604V48.3876C121.463 45.8138 122.702 44.5696 125.38 44.5696H130.795C133.445 44.5696 134.54 45.7562 134.54 48.3876V60.8531ZM132.725 57.6412V48.6181C132.725 47.551 132.552 46.883 132.178 46.5949C131.804 46.3068 130.903 46.1894 129.528 46.1894H126.552C125.14 46.1894 124.247 46.3345 123.873 46.5949C123.499 46.8553 123.297 47.5488 123.297 48.5604V54.4315C123.21 56.0812 123.469 56.8046 123.816 57.2379C123.988 57.4684 124.824 57.6135 125.315 57.6135C125.574 57.6412 126.005 57.6412 126.639 57.6412H132.725Z" fill="#3C3744" fill-opacity="0.6"/>
<path d="M139.41 42.0833C139.222 42.0861 139.036 42.0516 138.862 41.9817C138.688 41.9119 138.529 41.8081 138.395 41.6763C138.261 41.5446 138.154 41.3875 138.081 41.2141C138.008 41.0407 137.97 40.8545 137.969 40.6662C137.967 40.4771 138.004 40.2897 138.076 40.1152C138.148 39.9406 138.255 39.7824 138.389 39.6501C138.524 39.5179 138.684 39.4142 138.859 39.3453C139.034 39.2764 139.222 39.2437 139.41 39.2491C139.597 39.2444 139.782 39.2779 139.955 39.3474C140.129 39.417 140.286 39.5212 140.418 39.6537C140.55 39.7863 140.654 39.9444 140.723 40.1184C140.793 40.2925 140.826 40.4788 140.821 40.6662C140.823 40.8528 140.788 41.038 140.718 41.2108C140.648 41.3837 140.544 41.5407 140.412 41.6727C140.281 41.8047 140.125 41.909 139.952 41.9795C139.78 42.05 139.596 42.0853 139.41 42.0833ZM140.303 59.2333H138.487V44.5695H140.294L140.303 59.2333Z" fill="#3C3744" fill-opacity="0.6"/>
<path d="M149.52 46.1893H146.063V59.2332H144.22V39.9426H146.063V44.5695H149.52V46.1893Z" fill="#3C3744" fill-opacity="0.6"/>
<path d="M151.941 46.1894V44.5696H160.275C162.954 44.5696 164.221 45.611 164.221 48.2723V55.5882C164.221 58.019 163.041 59.2333 160.65 59.2333H155.195C152.574 59.2333 151.277 58.0467 151.277 55.7056V53.4199C151.277 50.9613 152.632 49.747 155.316 49.747H162.401V48.1848C162.401 46.6525 161.763 46.1894 159.952 46.1894H151.941ZM162.401 51.337H155.599C153.784 51.337 153.093 51.9153 153.093 53.6226V55.5882C153.093 57.208 153.697 57.6412 155.454 57.6412H160.292C162.05 57.6412 162.397 57.001 162.397 55.2937L162.401 51.337Z" fill="#3C3744" fill-opacity="0.6"/>
<path d="M169.943 59.2331H168.14V38.9587H169.954L169.943 59.2331Z" fill="#3C3744" fill-opacity="0.6"/>
<path d="M53.0078 52.2866H25.6164C25.7666 51.7275 25.7666 51.1384 25.6164 50.5793H53.0078C53.2333 50.5793 53.4496 50.6693 53.609 50.8294C53.7685 50.9895 53.8581 51.2066 53.8581 51.433C53.8581 51.6594 53.7685 51.8765 53.609 52.0366C53.4496 52.1967 53.2333 52.2866 53.0078 52.2866ZM22.3195 18.5671C22.094 18.5671 21.8778 18.6571 21.7183 18.8172C21.5588 18.9773 21.4693 19.1944 21.4693 19.4208C21.4693 19.6472 21.5588 19.8643 21.7183 20.0244C21.8778 20.1845 22.094 20.2745 22.3195 20.2745H28.9452L36.7507 6.70128C36.1951 6.54763 35.688 6.25375 35.2776 5.84762L27.9717 18.5671H22.3195ZM71.9263 35.4269C71.9264 35.1358 71.9767 34.847 72.0751 34.5732H39.1272L46.3949 21.937C45.821 21.83 45.3011 21.5287 44.9218 21.0833L37.178 34.5732H15.5174C15.7158 35.1249 15.7158 35.7289 15.5174 36.2806H55.5863L63.3449 49.7705C63.7242 49.3251 64.2442 49.0238 64.818 48.9168L57.5504 36.2806H72.0836C71.9852 36.0068 71.9349 35.7179 71.9348 35.4269H71.9263ZM44.6539 4.26835H55.5863L62.9007 16.9879C63.3107 16.5813 63.818 16.2873 64.3738 16.1342L56.5683 2.56104H44.6539C44.4284 2.56104 44.2122 2.65097 44.0527 2.81107C43.8932 2.97116 43.8037 3.18829 43.8037 3.41469C43.8037 3.6411 43.8932 3.85823 44.0527 4.01832C44.2122 4.17841 44.4284 4.26835 44.6539 4.26835ZM53.5265 67.4391C53.5266 67.148 53.5769 66.8592 53.6753 66.5854H38.5193C38.2938 66.5854 38.0775 66.6754 37.918 66.8355C37.7586 66.9956 37.669 67.2127 37.669 67.4391C37.669 67.6655 37.7586 67.8826 37.918 68.0427C38.0775 68.2028 38.2938 68.2927 38.5193 68.2927H53.6753C53.5769 68.019 53.5266 67.7301 53.5265 67.4391ZM21.8094 3.41469C21.8091 3.70554 21.7595 3.99423 21.6627 4.26835H30.6819C30.9074 4.26835 31.1237 4.17841 31.2831 4.01832C31.4426 3.85823 31.5322 3.6411 31.5322 3.41469C31.5322 3.18829 31.4426 2.97116 31.2831 2.81107C31.1237 2.65097 30.9074 2.56104 30.6819 2.56104H21.6627C21.7595 2.83516 21.8091 3.12384 21.8094 3.41469ZM28.9814 67.4391C28.9815 67.148 29.0318 66.8592 29.1302 66.5854H19.7496L11.993 53.0955C11.6137 53.5409 11.0938 53.8422 10.5199 53.9492L18.7675 68.2927H29.1217C29.0262 68.0185 28.9787 67.7296 28.9814 67.4391ZM7.67367 21.8537L0.114787 35.0001C0.00223856 35.1959 -0.0282942 35.4287 0.0298915 35.6471C0.0880771 35.8656 0.230226 36.052 0.425135 36.1653C0.55403 36.2412 0.700842 36.281 0.850269 36.2806C0.999374 36.2804 1.14582 36.2409 1.27491 36.166C1.404 36.091 1.5112 35.9834 1.58575 35.8537L9.14038 22.7074C8.5871 22.5527 8.08228 22.2589 7.67367 21.8537Z" fill="#3C3744" fill-opacity="0.6"/>
<path d="M13.1239 37.9879C14.5327 37.9879 15.6747 36.8413 15.6747 35.4269C15.6747 34.0126 14.5327 32.866 13.1239 32.866C11.7151 32.866 10.5731 34.0126 10.5731 35.4269C10.5731 36.8413 11.7151 37.9879 13.1239 37.9879Z" fill="#3C3744" fill-opacity="0.6"/>
<path d="M19.2586 5.97571C20.6673 5.97571 21.8094 4.82912 21.8094 3.41474C21.8094 2.00035 20.6673 0.85376 19.2586 0.85376C17.8498 0.85376 16.7078 2.00035 16.7078 3.41474C16.7078 4.82912 17.8498 5.97571 19.2586 5.97571Z" fill="#3C3744" fill-opacity="0.6"/>
<path d="M10.0544 22.8354C9.38175 22.8354 8.72418 22.6351 8.16488 22.2599C7.60558 21.8847 7.16966 21.3514 6.91224 20.7275C6.65482 20.1035 6.58746 19.417 6.7187 18.7546C6.84993 18.0922 7.17385 17.4838 7.64949 17.0062C8.12514 16.5287 8.73116 16.2035 9.3909 16.0717C10.0506 15.94 10.7345 16.0076 11.3559 16.266C11.9774 16.5245 12.5086 16.9621 12.8823 17.5237C13.256 18.0852 13.4555 18.7454 13.4555 19.4207C13.4555 20.3264 13.0972 21.1949 12.4593 21.8353C11.8215 22.4756 10.9564 22.8354 10.0544 22.8354ZM10.0544 17.7134C9.71808 17.7134 9.3893 17.8136 9.10965 18.0012C8.83 18.1888 8.61203 18.4554 8.48333 18.7674C8.35462 19.0793 8.32094 19.4226 8.38656 19.7538C8.45217 20.085 8.61413 20.3892 8.85196 20.628C9.08978 20.8668 9.39279 21.0294 9.72266 21.0953C10.0525 21.1611 10.3944 21.1273 10.7052 20.9981C11.0159 20.8689 11.2815 20.65 11.4684 20.3693C11.6552 20.0885 11.755 19.7584 11.755 19.4207C11.755 18.9679 11.5758 18.5337 11.2569 18.2135C10.938 17.8933 10.5054 17.7134 10.0544 17.7134Z" fill="#3C3744" fill-opacity="0.6"/>
<path d="M37.669 6.82927C36.9963 6.82927 36.3388 6.62901 35.7795 6.2538C35.2201 5.8786 34.7842 5.3453 34.5268 4.72136C34.2694 4.09742 34.202 3.41085 34.3333 2.74847C34.4645 2.0861 34.7884 1.47767 35.2641 1.00012C35.7397 0.52258 36.3457 0.197367 37.0055 0.0656128C37.6652 -0.0661416 38.3491 0.0014795 38.9705 0.259925C39.592 0.518371 40.1232 0.956033 40.4969 1.51757C40.8706 2.0791 41.0701 2.73928 41.0701 3.41464C41.0701 4.32025 40.7117 5.18878 40.0739 5.82915C39.4361 6.46952 38.571 6.82927 37.669 6.82927ZM37.669 1.70732C37.3327 1.70732 37.0039 1.80745 36.7242 1.99505C36.4446 2.18266 36.2266 2.4493 36.0979 2.76127C35.9692 3.07325 35.9355 3.41653 36.0011 3.74772C36.0667 4.0789 36.2287 4.38312 36.4665 4.62189C36.7043 4.86066 37.0074 5.02327 37.3372 5.08915C37.6671 5.15502 38.009 5.12121 38.3198 4.99199C38.6305 4.86277 38.8961 4.64394 39.0829 4.36317C39.2698 4.0824 39.3695 3.75231 39.3695 3.41464C39.3695 2.96183 39.1904 2.52756 38.8714 2.20738C38.5525 1.8872 38.12 1.70732 37.669 1.70732Z" fill="#3C3744" fill-opacity="0.6"/>
<path d="M65.2814 22.8354C64.6088 22.8354 63.9512 22.6351 63.3919 22.2599C62.8326 21.8847 62.3967 21.3514 62.1393 20.7275C61.8818 20.1035 61.8145 19.417 61.9457 18.7546C62.0769 18.0922 62.4009 17.4838 62.8765 17.0062C63.3522 16.5287 63.9582 16.2035 64.6179 16.0717C65.2777 15.94 65.9615 16.0076 66.583 16.266C67.2044 16.5245 67.7356 16.9621 68.1093 17.5237C68.483 18.0852 68.6825 18.7454 68.6825 19.4207C68.6825 20.3264 68.3242 21.1949 67.6863 21.8353C67.0485 22.4756 66.1834 22.8354 65.2814 22.8354ZM65.2814 17.7134C64.9451 17.7134 64.6163 17.8136 64.3367 18.0012C64.057 18.1888 63.839 18.4554 63.7103 18.7674C63.5816 19.0793 63.548 19.4226 63.6136 19.7538C63.6792 20.085 63.8411 20.3892 64.079 20.628C64.3168 20.8668 64.6198 21.0294 64.9497 21.0953C65.2795 21.1611 65.6215 21.1273 65.9322 20.9981C66.2429 20.8689 66.5085 20.65 66.6954 20.3693C66.8822 20.0885 66.982 19.7584 66.982 19.4207C66.982 18.9679 66.8028 18.5337 66.4839 18.2135C66.165 17.8933 65.7324 17.7134 65.2814 17.7134Z" fill="#3C3744" fill-opacity="0.6"/>
<path d="M22.3195 54.8476C21.6469 54.8476 20.9893 54.6473 20.43 54.2721C19.8707 53.8969 19.4348 53.3636 19.1773 52.7397C18.9199 52.1157 18.8526 51.4292 18.9838 50.7668C19.115 50.1044 19.439 49.496 19.9146 49.0184C20.3903 48.5409 20.9963 48.2157 21.656 48.0839C22.3158 47.9522 22.9996 48.0198 23.6211 48.2782C24.2425 48.5367 24.7737 48.9743 25.1474 49.5359C25.5211 50.0974 25.7206 50.7576 25.7206 51.4329C25.7206 52.3386 25.3623 53.2071 24.7244 53.8475C24.0866 54.4878 23.2215 54.8476 22.3195 54.8476ZM22.3195 49.7256C21.9832 49.7256 21.6544 49.8258 21.3748 50.0134C21.0951 50.201 20.8771 50.4676 20.7484 50.7796C20.6197 51.0916 20.5861 51.4348 20.6517 51.766C20.7173 52.0972 20.8792 52.4014 21.1171 52.6402C21.3549 52.879 21.6579 53.0416 21.9878 53.1075C22.3176 53.1733 22.6596 53.1395 22.9703 53.0103C23.281 52.8811 23.5466 52.6622 23.7335 52.3815C23.9203 52.1007 24.0201 51.7706 24.0201 51.4329C24.0201 50.9801 23.8409 50.5459 23.522 50.2257C23.2031 49.9055 22.7705 49.7256 22.3195 49.7256Z" fill="#3C3744" fill-opacity="0.6"/>
<path d="M46.8731 21.9818C48.2819 21.9818 49.4239 20.8352 49.4239 19.4208C49.4239 18.0065 48.2819 16.8599 46.8731 16.8599C45.4644 16.8599 44.3223 18.0065 44.3223 19.4208C44.3223 20.8352 45.4644 21.9818 46.8731 21.9818Z" fill="#3C3744" fill-opacity="0.6"/>
<path d="M74.4856 37.9879C75.8943 37.9879 77.0364 36.8413 77.0364 35.4269C77.0364 34.0126 75.8943 32.866 74.4856 32.866C73.0768 32.866 71.9348 34.0126 71.9348 35.4269C71.9348 36.8413 73.0768 37.9879 74.4856 37.9879Z" fill="#3C3744" fill-opacity="0.6"/>
<path d="M65.2814 53.994C66.6902 53.994 67.8322 52.8474 67.8322 51.433C67.8322 50.0187 66.6902 48.8721 65.2814 48.8721C63.8727 48.8721 62.7306 50.0187 62.7306 51.433C62.7306 52.8474 63.8727 53.994 65.2814 53.994Z" fill="#3C3744" fill-opacity="0.6"/>
<path d="M56.0773 69.9999C57.4861 69.9999 58.6281 68.8533 58.6281 67.4389C58.6281 66.0245 57.4861 64.8779 56.0773 64.8779C54.6685 64.8779 53.5265 66.0245 53.5265 67.4389C53.5265 68.8533 54.6685 69.9999 56.0773 69.9999Z" fill="#3C3744" fill-opacity="0.6"/>
<path d="M31.5322 69.9999C32.9409 69.9999 34.083 68.8533 34.083 67.4389C34.083 66.0245 32.9409 64.8779 31.5322 64.8779C30.1234 64.8779 28.9814 66.0245 28.9814 67.4389C28.9814 68.8533 30.1234 69.9999 31.5322 69.9999Z" fill="#3C3744" fill-opacity="0.6"/>
<path d="M10.0544 53.994C11.4632 53.994 12.6052 52.8474 12.6052 51.433C12.6052 50.0187 11.4632 48.8721 10.0544 48.8721C8.64565 48.8721 7.50361 50.0187 7.50361 51.433C7.50361 52.8474 8.64565 53.994 10.0544 53.994Z" fill="#3C3744" fill-opacity="0.6"/>
</g>
<defs>
<clipPath id="clip0_63_1137">
<rect width="213.241" height="70" fill="white"/>
</clipPath>
</defs>
</svg>
