<svg width="373" height="70" viewBox="0 0 373 70" fill="none" xmlns="http://www.w3.org/2000/svg">
<g clip-path="url(#clip0_63_1119)">
<path d="M0 69.2112H6.10099V44.2003H14.3088V38.5366H6.10099V20.0571H15.6367V14.1567H0L0 69.2112Z" fill="#3C3744" fill-opacity="0.6"/>
<path d="M31.5087 13.373C24.0014 13.373 21.8945 17.3803 21.8945 23.044V60.3237C21.8945 65.9874 23.9857 69.9999 31.5087 69.9999C39.0317 69.9999 41.1281 65.9874 41.1281 60.3237V23.044C41.1281 17.3803 39.016 13.373 31.5087 13.373ZM35.0271 60.3237C35.0271 62.6849 34.2481 64.4939 31.5087 64.4939C28.7692 64.4939 27.9903 62.6849 27.9903 60.3237V23.044C27.9903 20.6828 28.7745 18.8738 31.5087 18.8738C34.2429 18.8738 35.0271 20.6828 35.0271 23.044V60.3237Z" fill="#3C3744" fill-opacity="0.6"/>
<path d="M68.9615 36.2858V23.6647C68.9615 18.0009 67.2415 14.1462 59.7342 14.1462H49.728V69.2112H55.8238V45.6149H57.5437L65.1295 69.2112H71.9258L63.331 45.2258C67.712 44.1214 68.9615 40.8189 68.9615 36.2858ZM62.8605 36.2858C62.8605 38.6418 62.0816 39.967 59.3421 39.967H55.8238V20.0571H59.3421C62.0816 20.0571 62.8605 21.314 62.8605 23.6752V36.2858Z" fill="#3C3744" fill-opacity="0.6"/>
<path d="M86.6319 13.373C79.1246 13.373 77.0125 17.3803 77.0125 23.044V60.3237C77.0125 65.9874 79.1037 69.9999 86.6319 69.9999C94.1601 69.9999 96.2513 65.9874 96.2513 60.3237V23.044C96.2513 17.3803 94.1392 13.373 86.6319 13.373ZM90.1503 60.3237C90.1503 62.6849 89.3661 64.4939 86.6319 64.4939C83.8977 64.4939 83.124 62.6849 83.124 60.3237V23.044C83.124 20.6828 83.9081 18.8738 86.6423 18.8738C89.3765 18.8738 90.1607 20.6828 90.1607 23.044L90.1503 60.3237Z" fill="#3C3744" fill-opacity="0.6"/>
<path d="M197.155 60.4763C197.155 62.8375 196.528 64.4888 194.019 64.4888C191.509 64.4888 190.882 62.8375 190.882 60.4763V53.4821H184.802V60.4763C184.802 66.1401 187.228 69.9948 194.029 69.9948C201.301 69.9948 203.256 66.1401 203.256 60.4763V14.1567H197.155V60.4763Z" fill="#3C3744" fill-opacity="0.6"/>
<path d="M225.381 60.3238C225.381 62.685 224.597 64.4941 221.863 64.4941C219.128 64.4941 218.344 62.685 218.344 60.3238V14.1567H212.254V60.3238C212.254 65.9876 214.345 70 221.873 70C229.401 70 231.492 65.9876 231.492 60.3238V14.1567H225.381V60.3238Z" fill="#3C3744" fill-opacity="0.6"/>
<path d="M259.702 36.2858V23.6647C259.702 18.0009 257.982 14.1462 250.48 14.1462H240.484V69.2112H246.585V45.6149H248.305L255.891 69.2112H262.687L254.077 45.2258C258.453 44.1214 259.702 40.8189 259.702 36.2858ZM253.606 36.2858C253.606 38.6418 252.822 39.967 250.088 39.967H246.57V20.0571H250.088C252.822 20.0571 253.606 21.314 253.606 23.6752V36.2858Z" fill="#3C3744" fill-opacity="0.6"/>
<path d="M270.027 10.2231H273.311L278.157 0H272.526L270.027 10.2231Z" fill="#3C3744" fill-opacity="0.6"/>
<path d="M268.537 14.1567H274.638V69.2112H268.537V14.1567Z" fill="#3C3744" fill-opacity="0.6"/>
<path d="M293.872 14.1567H284.023V69.2112H294.029C301.536 69.2112 303.439 65.3565 303.439 59.698V23.6647C303.413 18.0114 301.379 14.1567 293.872 14.1567ZM297.312 59.698C297.312 62.054 296.533 63.3161 293.794 63.3161H290.134V20.0571H293.794C296.533 20.0571 297.312 21.314 297.312 23.6752V59.698Z" fill="#3C3744" fill-opacity="0.6"/>
<path d="M312.405 14.1567H318.506V69.2112H312.405V14.1567Z" fill="#3C3744" fill-opacity="0.6"/>
<path d="M336.72 13.373C329.213 13.373 327.101 17.3803 327.101 23.044V60.3237C327.101 65.9874 329.192 69.9999 336.72 69.9999C343.757 69.9999 346.183 65.9874 346.183 60.3237V53.4872H340.238V60.3237C340.238 62.6849 339.454 64.4939 336.72 64.4939C333.986 64.4939 333.202 62.6849 333.202 60.3237V23.044C333.202 20.6828 333.986 18.8738 336.72 18.8738C339.454 18.8738 340.238 20.6828 340.238 23.044V29.1021H346.183V23.044C346.183 17.3803 343.757 13.373 336.72 13.373Z" fill="#3C3744" fill-opacity="0.6"/>
<path d="M362.818 13.373C355.311 13.373 353.204 17.3803 353.204 23.044V60.3237C353.204 65.9874 355.295 69.9999 362.818 69.9999C370.341 69.9999 372.437 65.9874 372.437 60.3237V23.044C372.453 17.3803 370.341 13.373 362.818 13.373ZM366.336 60.3237C366.336 62.6849 365.557 64.4939 362.818 64.4939C360.078 64.4939 359.299 62.6849 359.299 60.3237V23.044C359.299 20.6828 360.084 18.8738 362.818 18.8738C365.552 18.8738 366.336 20.6828 366.336 23.044V60.3237Z" fill="#3C3744" fill-opacity="0.6"/>
<path d="M110.445 66.2295H172.725V69.2112H110.445V66.2295Z" fill="#3C3744" fill-opacity="0.6"/>
<path d="M113.409 60.2607H169.761V63.2425H113.409V60.2607Z" fill="#3C3744" fill-opacity="0.6"/>
<path d="M110.445 26.1046V29.0864H117.858V57.5155H120.822V29.0864H132.69V57.5155H135.654V29.0864H147.516V57.5155H150.48V29.0864H162.348V57.5155H165.312V29.0864H172.725V26.1046L141.588 13.373L110.445 26.1046ZM117.701 26.1046L141.588 16.3022L165.469 26.1257L117.701 26.1046Z" fill="#3C3744" fill-opacity="0.6"/>
</g>
<defs>
<clipPath id="clip0_63_1119">
<rect width="372.453" height="70" fill="white"/>
</clipPath>
</defs>
</svg>
