<svg width="40" height="40" viewBox="0 0 40 40" fill="none" xmlns="http://www.w3.org/2000/svg">
<path d="M15 20H21.25M15 25H21.25M15 30H21.25M26.25 31.25H30C30.9946 31.25 31.9484 30.8549 32.6516 30.1516C33.3549 29.4484 33.75 28.4946 33.75 27.5V10.18C33.75 8.28833 32.3417 6.68333 30.4567 6.52667C29.8333 6.47497 29.2094 6.43052 28.585 6.39333M28.585 6.39333C28.6956 6.75181 28.7501 7.12485 28.75 7.5C28.75 7.83152 28.6183 8.14946 28.3839 8.38388C28.1495 8.6183 27.8315 8.75 27.5 8.75H20C19.31 8.75 18.75 8.19 18.75 7.5C18.75 7.115 18.8083 6.74333 18.9167 6.39333M28.585 6.39333C28.1133 4.86333 26.6867 3.75 25 3.75H22.5C21.6987 3.75019 20.9186 4.00691 20.2738 4.48257C19.629 4.95822 19.1534 5.62783 18.9167 6.39333M18.9167 6.39333C18.29 6.43167 17.6667 6.47667 17.0433 6.52667C15.1583 6.68333 13.75 8.28833 13.75 10.18V13.75M13.75 13.75H8.125C7.09 13.75 6.25 14.59 6.25 15.625V34.375C6.25 35.41 7.09 36.25 8.125 36.25H24.375C25.41 36.25 26.25 35.41 26.25 34.375V15.625C26.25 14.59 25.41 13.75 24.375 13.75H13.75ZM11.25 20H11.2633V20.0133H11.25V20ZM11.25 25H11.2633V25.0133H11.25V25ZM11.25 30H11.2633V30.0133H11.25V30Z" stroke="#3C3744" stroke-width="1.5" stroke-linecap="round" stroke-linejoin="round"/>
</svg>
