<svg width="40" height="40" viewBox="0 0 40 40" fill="none" xmlns="http://www.w3.org/2000/svg">
<path d="M31.6673 34.5H31.6667H8.33334C7.55046 34.5 6.89229 34.2269 6.33189 33.6664C5.7715 33.1061 5.49905 32.4486 5.5 31.6673V31.6667V8.33334C5.5 7.55046 5.77315 6.89229 6.33356 6.33189C6.89394 5.7715 7.55136 5.49905 8.33273 5.5H8.33334H31.6667C32.4495 5.5 33.1077 5.77315 33.6681 6.33356C34.2285 6.89394 34.501 7.55136 34.5 8.33273V8.33334V31.6667C34.5 32.4495 34.2269 33.1077 33.6665 33.6681C33.1061 34.2285 32.4487 34.5009 31.6673 34.5ZM35 31.6667V8.33334L5 31.6667C4.99889 32.5822 5.325 33.3667 5.97834 34.02C6.63167 34.6733 7.41667 35 8.33334 35H31.6667C32.5822 35.0011 33.3667 34.675 34.02 34.0217C34.6733 33.3683 35 32.5833 35 31.6667Z" stroke="#F58D61"/>
</svg>
