<svg width="40" height="40" viewBox="0 0 40 40" fill="none" xmlns="http://www.w3.org/2000/svg">
<path d="M5.66667 28.5V29H6.16667H17.603C17.7007 29.7373 17.8707 30.4631 18.1104 31.1667H3.5V26.6667C3.5 25.7373 3.95977 24.8882 4.79684 24.1149C5.63749 23.3383 6.82563 22.6718 8.18355 22.1288C10.9002 21.0426 14.1704 20.5 16.3333 20.5C17.2758 20.5 18.4388 20.61 19.6837 20.8237C19.2302 21.4513 18.842 22.124 18.5254 22.8313C17.7999 22.7291 17.0687 22.6667 16.3333 22.6667C13.7842 22.6667 11.1811 23.2914 9.21382 24.0502C8.23033 24.4295 7.3878 24.8492 6.7815 25.2539C6.47982 25.4553 6.21984 25.6641 6.02945 25.8749C5.85354 26.0696 5.66667 26.3429 5.66667 26.6667V28.5ZM32.7798 30.3536L33.2185 30.7922L33.5539 30.2704C34.0597 29.4836 34.3333 28.5217 34.3333 27.5C34.3333 24.4572 31.8761 22 28.8333 22C27.8117 22 26.8497 22.2736 26.063 22.7794L25.5411 23.1149L25.9798 23.5536L32.7798 30.3536ZM24.8869 24.6464L24.4482 24.2078L24.1127 24.7296C23.607 25.5164 23.3333 26.4783 23.3333 27.5C23.3333 30.5428 25.7905 33 28.8333 33C29.855 33 30.817 32.7264 31.6037 32.2206L32.1256 31.8851L31.6869 31.4464L24.8869 24.6464ZM11.9728 7.30617C13.1293 6.1497 14.6978 5.5 16.3333 5.5C17.9688 5.5 19.5374 6.1497 20.6938 7.30617C21.8503 8.46265 22.5 10.0312 22.5 11.6667C22.5 13.3022 21.8503 14.8707 20.6938 16.0272C19.5374 17.1836 17.9688 17.8333 16.3333 17.8333C14.6978 17.8333 13.1293 17.1836 11.9728 16.0272C10.8164 14.8707 10.1667 13.3022 10.1667 11.6667C10.1667 10.0312 10.8164 8.46265 11.9728 7.30617ZM21.8333 27.5C21.8333 23.6095 24.9428 20.5 28.8333 20.5C32.7239 20.5 35.8333 23.6095 35.8333 27.5C35.8333 31.3905 32.7239 34.5 28.8333 34.5C24.9428 34.5 21.8333 31.3905 21.8333 27.5Z" stroke="#F58D61"/>
</svg>
