<svg width="72" height="20" viewBox="0 0 72 20" fill="none" xmlns="http://www.w3.org/2000/svg">
<g clip-path="url(#clip0_120_1143)">
<path d="M70.5018 3.32754C69.321 2.15853 67.4199 2.15853 66.2391 3.32754C65.3062 4.55559 65.3062 6.26777 66.2391 7.49582C67.4199 8.65302 69.321 8.65302 70.5018 7.49582C71.4347 6.26777 71.4347 4.55559 70.5018 3.32754ZM69.3328 6.69287C68.8723 7.23604 68.0575 7.29508 67.5143 6.83457C67.4671 6.78733 67.4199 6.7401 67.3726 6.69287C66.9121 5.90172 66.9121 4.92164 67.3726 4.11869C67.8332 3.57551 68.6479 3.51647 69.1911 3.9888C69.2383 4.03603 69.2856 4.07145 69.321 4.11869C69.7933 4.92164 69.7933 5.88991 69.3328 6.69287ZM58.5283 2.8434C58.0206 2.59543 57.4656 2.47735 56.8988 2.47735C56.1549 2.39469 55.4228 2.67809 54.9032 3.20946C54.6435 3.5637 54.5018 3.97699 54.4899 4.40208H55.8951C55.9187 4.21315 55.9896 4.03603 56.0959 3.89433C56.2966 3.7054 56.5564 3.61093 56.828 3.63455C57.0759 3.62274 57.3121 3.66998 57.5365 3.76444C57.7018 3.85891 57.7962 4.04784 57.7726 4.23677C57.7726 4.4257 57.6427 4.60282 57.4538 4.65005C57.2767 4.7209 57.0877 4.75633 56.8988 4.77994L56.4029 4.83899C55.9542 4.87441 55.5173 5.0043 55.1158 5.20504C54.5844 5.50024 54.2774 6.07884 54.3128 6.69287C54.2892 7.15338 54.4663 7.60209 54.8088 7.92091C55.163 8.20431 55.6117 8.35782 56.0722 8.35782C59.2486 8.49952 59.2132 6.69287 59.2368 6.3032V4.21315C59.3195 3.65817 59.0361 3.10318 58.5283 2.8434ZM57.7962 6.00799C57.8317 6.38586 57.6781 6.76372 57.3829 7.01169C57.1232 7.18881 56.8162 7.28327 56.5091 7.28327C56.3202 7.28327 56.1431 7.22423 56.0014 7.11796C55.8479 6.97626 55.7652 6.77552 55.7888 6.56298C55.777 6.315 55.9069 6.06703 56.1313 5.94895C56.3438 5.84268 56.5682 5.78364 56.8043 5.74821L57.135 5.68917C57.2649 5.66556 57.3948 5.63013 57.5246 5.59471C57.6191 5.55928 57.7136 5.51205 57.808 5.45301L57.7962 6.00799ZM51.2899 3.71721C51.5969 3.69359 51.8922 3.82348 52.0929 4.05965C52.211 4.22496 52.2818 4.41389 52.3172 4.61463H53.8877C53.8759 3.96518 53.5689 3.35116 53.0612 2.94968C52.518 2.61905 51.8922 2.45373 51.2545 2.48916C50.4988 2.44193 49.7549 2.73713 49.2235 3.28031C48.7039 3.89433 48.4324 4.68548 48.4914 5.50024C48.456 6.24415 48.6921 6.97626 49.1527 7.55486C49.684 8.12166 50.4516 8.41686 51.2309 8.34601C52.0575 8.40505 52.8486 8.039 53.3682 7.38955C53.6516 7.0353 53.8287 6.5984 53.8759 6.13788H52.3054C52.2818 6.39766 52.1874 6.64563 52.0338 6.85818C51.8331 7.05892 51.5497 7.16519 51.2663 7.12977C50.8058 7.15339 50.3807 6.86999 50.239 6.43309C50.1327 6.11427 50.0737 5.78364 50.0855 5.45301C50.0737 5.11057 50.1209 4.75633 50.239 4.4257C50.3807 3.9888 50.8176 3.69359 51.2899 3.71721ZM48.0427 2.50097C44.8191 2.50097 45.0198 5.34674 45.0198 5.34674V8.23974H46.484V5.52386C46.4604 5.18142 46.5194 4.85079 46.6493 4.53197C46.8973 4.13049 47.3578 3.91795 47.8301 3.97699H48.0073H48.2552V2.48916H48.1253L48.0427 2.50097ZM42.6936 6.72829C42.6345 6.81095 42.5755 6.8818 42.4928 6.95265C42.2567 7.11796 41.9615 7.20062 41.6781 7.177C41.4065 7.18881 41.1349 7.12977 40.8987 6.98807C40.5091 6.72829 40.2847 6.29139 40.3083 5.83087H44.3467C44.3585 5.46482 44.3467 5.08696 44.2995 4.7209C44.2405 4.30762 44.087 3.91795 43.8508 3.57551C43.6146 3.22126 43.284 2.92606 42.8943 2.76075C42.481 2.58362 42.0441 2.48916 41.5954 2.50097C40.8515 2.47735 40.143 2.74894 39.6117 3.2685C39.0685 3.87071 38.7851 4.67367 38.8441 5.48843C38.7733 6.31501 39.0803 7.14158 39.6943 7.70837C40.2493 8.15708 40.9342 8.40505 41.6545 8.39324C42.4338 8.44047 43.2013 8.14527 43.7445 7.57848C43.9807 7.34232 44.1578 7.05892 44.2523 6.7401L42.6936 6.72829ZM40.7334 4.0006C40.9696 3.77625 41.2766 3.66997 41.5954 3.68178C41.9142 3.66997 42.2095 3.77625 42.4574 3.97699C42.7054 4.20134 42.8471 4.52016 42.8471 4.85079H40.3438C40.3792 4.54378 40.5209 4.24858 40.7334 4.0006ZM38.2655 8.23974H36.9548V4.87441C37.0139 4.35485 36.636 3.89433 36.1282 3.8471C36.081 3.8471 36.022 3.83529 35.9747 3.8471C35.4316 3.83529 34.9829 4.26038 34.9592 4.80356C34.9592 4.82718 34.9592 4.8626 34.9592 4.88622V8.23974H33.6249V4.87441C33.684 4.36666 33.3179 3.90614 32.8102 3.8471C32.7629 3.8471 32.7039 3.83529 32.6567 3.8471C32.1135 3.82348 31.6648 4.24858 31.6411 4.77994C31.6411 4.81537 31.6411 4.85079 31.6411 4.88622V8.23974H30.295V4.90983C30.2124 3.64636 31.1688 2.56001 32.4323 2.47735C32.5031 2.47735 32.574 2.47735 32.633 2.47735C33.2825 2.46554 33.8965 2.74894 34.298 3.25669C34.7113 2.76074 35.3135 2.47735 35.9629 2.47735C37.4153 2.47735 38.2773 3.48104 38.2773 4.90983V8.23974H38.2655ZM65.0937 0.765165C65.0937 0.765165 63.6295 0.611659 63.6295 1.79248V3.35116C63.476 3.09138 63.2516 2.87883 62.9918 2.73713C62.7202 2.58362 62.4132 2.51277 62.0944 2.51277C61.4213 2.48916 60.7719 2.79617 60.3468 3.32754C59.8745 3.9888 59.6501 4.79175 59.6973 5.59471C59.6619 6.32681 59.8981 7.04711 60.3586 7.61391C60.9254 8.14527 61.6693 8.41686 62.4368 8.36963C65.1291 8.36963 65.0937 6.06703 65.0937 6.06703V0.765165ZM63.3461 6.72829C63.1335 7.03531 62.7793 7.21243 62.4132 7.18881C62.0472 7.21243 61.6929 7.03531 61.4922 6.72829C61.2678 6.33862 61.1616 5.90172 61.1852 5.46482C61.1734 5.05153 61.2796 4.63824 61.4804 4.27219C61.6811 3.95337 62.0354 3.76444 62.4132 3.78806C62.6848 3.78806 62.9446 3.88252 63.1453 4.05965C63.5232 4.46112 63.7121 5.0043 63.6649 5.55928C63.6767 5.97257 63.5704 6.37405 63.3461 6.71648V6.72829ZM31.771 17.5092C31.771 17.6981 31.7002 17.887 31.5585 18.0169C31.4286 18.1586 31.2397 18.2294 31.0389 18.2294H30.3068V13.1519C30.2478 12.3726 30.5784 11.6169 31.1924 11.1327C31.7474 10.7313 32.4205 10.5305 33.1054 10.5778C33.8257 10.5659 34.5223 10.8493 35.0183 11.3689C35.5024 11.9593 35.7386 12.715 35.7032 13.4826C35.7386 14.2501 35.5142 15.0176 35.0655 15.6435C34.6758 16.163 34.05 16.4582 33.4006 16.4464C33.0817 16.4582 32.7511 16.3874 32.4559 16.2575C32.1607 16.1158 31.9245 15.8796 31.771 15.5962V17.4973V17.5092ZM34.2153 13.5534C34.2389 13.1047 34.1327 12.6678 33.8965 12.2899C33.684 11.9947 33.3297 11.8294 32.9755 11.8412C32.6212 11.8294 32.2788 11.9947 32.0662 12.2899C31.8419 12.6678 31.7356 13.1165 31.771 13.5534C31.7356 13.9785 31.8537 14.4036 32.0899 14.7578C32.3024 15.0531 32.6567 15.2184 33.0109 15.2066C33.3651 15.2184 33.6958 15.0531 33.8965 14.7578C34.1327 14.4036 34.2389 13.9785 34.2153 13.5534ZM45.374 15.9859V15.6198C45.1497 15.9977 44.7836 16.2693 44.3585 16.3638C43.9334 16.4582 43.4847 16.4228 43.0833 16.2575C42.6227 16.0686 42.2331 15.7379 41.9733 15.3128C41.6427 14.7697 41.4892 14.132 41.5246 13.5062C41.4892 12.7505 41.7017 12.0065 42.1268 11.3807C42.5991 10.8139 43.3194 10.5187 44.0515 10.5659C44.7246 10.5069 45.3977 10.7076 45.929 11.1209C46.5312 11.6169 46.8619 12.3726 46.791 13.1519V16.1394C46.8383 17.521 45.7519 18.6664 44.3822 18.7136C44.2759 18.7136 44.1578 18.7136 44.0515 18.7018C42.9179 18.7372 41.9261 17.9815 41.6427 16.8833H43.1777C43.4257 17.2966 43.9098 17.521 44.394 17.4383C44.6419 17.3793 44.8663 17.2258 45.0316 17.025C45.2442 16.7298 45.3622 16.3756 45.3622 16.0095M42.9416 13.5652C42.9416 14.5453 43.225 15.0767 43.7799 15.1829C44.2405 15.3246 44.7246 15.1711 45.0198 14.7933C45.1733 14.5807 45.2678 14.3209 45.2914 14.0612C45.3386 13.7305 45.3386 13.3999 45.2914 13.0693C45.2442 12.7505 45.1261 12.4553 44.9371 12.1955C44.7482 11.9357 44.453 11.794 44.1342 11.8176C43.7209 11.7822 43.343 12.0065 43.1659 12.3726C42.9888 12.7505 42.9061 13.1637 42.9061 13.577M40.2847 10.9674C39.777 10.7195 39.222 10.6014 38.6552 10.6014C37.9113 10.5187 37.1792 10.8021 36.6596 11.3335C36.3998 11.6877 36.2581 12.101 36.2463 12.5379H37.6633C37.6869 12.349 37.7578 12.1719 37.8641 12.0302C38.0648 11.8412 38.3246 11.7468 38.5962 11.7704C38.8441 11.7586 39.0803 11.8058 39.3046 11.9003C39.47 11.9947 39.5644 12.1837 39.5408 12.3726C39.5408 12.5615 39.4109 12.7386 39.222 12.7859C39.0449 12.8567 38.8559 12.8922 38.667 12.9158L38.1711 12.9748C37.7224 13.0102 37.2854 13.1401 36.884 13.3409C36.3526 13.6361 36.0456 14.2147 36.081 14.8287C36.0574 15.2892 36.2345 15.7379 36.577 16.0567C36.9312 16.3401 37.3799 16.4936 37.8404 16.4936C41.0168 16.6353 40.9814 14.8287 41.005 14.439V12.349C41.0641 11.794 40.7807 11.2508 40.2965 10.9792M39.5762 14.1556C39.6117 14.5335 39.4582 14.9114 39.1629 15.1593C38.9032 15.3364 38.5962 15.4309 38.2891 15.4309C38.1002 15.4309 37.9231 15.3719 37.7814 15.2656C37.6279 15.1239 37.5452 14.9232 37.5688 14.7106C37.557 14.4626 37.6869 14.2147 37.9113 14.0966C38.1238 13.9903 38.3482 13.9313 38.5843 13.8958L38.915 13.8368C39.0449 13.8132 39.1748 13.7778 39.3046 13.7423C39.3991 13.7069 39.4936 13.6597 39.588 13.6006L39.5762 14.1556ZM52.3291 11.4398C51.1482 10.2707 49.2471 10.2707 48.0663 11.4398C47.1335 12.6678 47.1335 14.38 48.0663 15.608C49.2589 16.7652 51.1364 16.7652 52.3291 15.608C53.2619 14.3682 53.2619 12.6678 52.3291 11.4398ZM51.1719 14.8051C50.7113 15.3483 49.8966 15.4073 49.3534 14.9468C49.3062 14.8995 49.2589 14.8523 49.2117 14.8051C48.7512 14.0139 48.7512 13.0339 49.2117 12.2427C49.6722 11.6995 50.487 11.6405 51.0302 12.101C51.0774 12.1482 51.1246 12.1955 51.1719 12.2427C51.6206 13.0339 51.6206 14.0021 51.1719 14.8051Z" fill="#F7F7FF"/>
<path d="M26.0561 9.82204C26.0561 14.4981 20.3527 18.2885 13.3269 18.2885C6.301 18.2885 0.597656 14.4981 0.597656 9.82204C0.597656 5.146 6.301 1.34377 13.3269 1.34377C20.3527 1.35558 26.0561 5.146 26.0561 9.82204Z" fill="#B5B5B5"/>
<path d="M25.8081 9.45598C22.3247 8.88919 17.9793 10.7549 17.4598 10.9556L17.1764 11.0737L17.2944 10.7903C17.4952 10.2235 17.6133 8.64122 17.5424 7.47221C17.4598 6.29139 17.9085 5.15781 18.1092 4.63825L18.1446 4.52017C18.3099 4.07146 18.5107 4.07146 18.7468 4.11869C18.8295 4.11869 18.9122 4.16592 18.9948 4.16592C19.3609 4.16592 19.8096 4.00061 20.1284 3.83529C20.2937 3.75264 20.4472 3.66998 20.648 3.66998C20.766 3.63455 20.8959 3.63455 20.9786 3.58732C21.0967 3.5519 21.2266 3.50466 21.3446 3.50466C21.7934 3.46924 22.1122 3.38658 22.1122 3.05595C22.1122 3.02053 22.1122 2.93787 22.0295 2.89064C21.9469 2.85522 21.8288 2.80798 21.4627 2.89064H21.4273C21.262 2.93787 20.8959 3.00872 21.2266 2.72532C21.2266 2.67809 21.262 2.67809 21.262 2.67809C21.3801 2.59543 21.51 2.3947 21.5926 2.27661C21.628 2.24119 21.6753 2.15853 21.628 2.07588C21.5926 1.8279 21.2266 1.59174 20.8133 1.34377C20.7306 1.30835 20.648 1.22569 20.5653 1.17845C20.3646 1.01314 19.8804 0.647086 19.6679 0.847825C19.3845 1.0958 18.2863 2.14673 17.6369 2.87883C17.0465 3.5519 16.5623 4.30762 16.1727 5.11058L16.0073 5.47663C15.6413 6.29139 15.0745 7.54306 14.5077 8.87738L14.2597 9.4796C14.2243 9.56226 14.2243 9.59768 14.1771 9.68034C13.6929 10.7785 13.0435 12.1482 13.4922 12.8804C13.6929 13.1992 14.0944 13.4117 14.7085 13.4471C18.4753 13.766 19.4081 13.6951 21.6044 13.3999C22.0059 13.3645 22.372 13.2818 22.7852 13.1992C22.9506 13.1637 23.1041 13.1165 23.2694 13.1165C23.3875 13.1165 23.4701 13.1165 23.6 13.1519C23.8007 13.2346 23.8834 13.3527 23.9661 13.518L24.0487 13.6361L24.1668 13.518C24.8517 12.7505 25.3358 11.9003 25.631 11.0029C25.7491 10.4715 25.7963 9.95193 25.8317 9.70395V9.42056H25.8081V9.45598ZM12.0634 9.45598C11.9808 9.25524 11.8627 9.05451 11.8154 8.85377C11.2487 7.47221 10.6819 6.22054 10.3158 5.40578L10.1505 5.07515C9.70179 4.14231 9.26488 3.4102 8.68628 2.84341C8.03683 2.15853 6.95048 1.06037 6.65528 0.812402C6.40731 0.611663 5.92317 1.01314 5.76967 1.14303C5.68701 1.17845 5.60435 1.26111 5.5217 1.30834C5.12022 1.55632 4.75417 1.79248 4.70693 2.04045C4.70693 2.12311 4.70693 2.20577 4.74236 2.24119C4.77778 2.32385 4.86044 2.44193 4.9431 2.52459C4.97852 2.56001 5.02575 2.56001 5.06118 2.60724H5.10841C5.42723 2.89064 5.39181 2.9733 5.35638 2.93787C5.19107 2.85522 5.07299 2.81979 4.9549 2.81979H4.91948C4.518 2.73713 4.38811 2.78437 4.31726 2.81979C4.23461 2.85522 4.23461 2.93787 4.23461 2.9851C4.23461 3.30393 4.60066 3.38658 5.04937 3.43381C5.16745 3.43381 5.29734 3.46924 5.41542 3.51647C5.5335 3.56371 5.61616 3.59913 5.74605 3.59913C5.91137 3.63456 6.1121 3.68179 6.26561 3.76444C6.59624 3.92976 7.03314 4.1305 7.39919 4.08326C7.48185 4.08326 7.56451 4.08326 7.64717 4.04784C7.89514 4.01242 8.09588 4.01242 8.24938 4.44932L8.28481 4.5674C8.48555 5.08696 8.93426 6.23235 8.8516 7.40136C8.76894 8.57037 8.88702 10.1527 9.09957 10.7195L9.21765 11.0029L8.93426 10.8848C8.48555 10.684 4.31726 8.85377 0.869278 9.42056H0.786621V10.0228C0.904703 11.1564 1.38884 12.2899 2.28626 13.3054L2.36892 13.4235L2.45157 13.3054C2.53423 13.1874 2.61689 13.1401 2.73497 13.0575C3.01836 12.9748 3.18368 13.0102 3.54973 13.0929C3.95121 13.1756 4.3645 13.2582 4.73055 13.2936C5.94679 13.459 6.76155 13.5416 7.8479 13.5416C8.78075 13.5416 9.91433 13.459 11.6147 13.3409C12.2169 13.3054 12.6302 13.0929 12.831 12.7741C13.2797 12.0065 12.6656 10.6722 12.1461 9.52683C12.1107 9.57406 12.1107 9.50321 12.0634 9.45598Z" fill="#757575"/>
<path d="M23.777 13.9195C23.6944 13.9549 23.6589 14.0376 23.5763 14.0848L23.529 14.1202C23.4464 14.1556 23.411 14.2383 23.3283 14.2855C23.2456 14.3682 23.163 14.4036 23.0803 14.4863C22.9977 14.5217 22.915 14.6043 22.8796 14.6516L22.8442 14.6988C22.7615 14.7342 22.6789 14.8169 22.6434 14.8641C22.6434 14.8641 22.608 14.8641 22.608 14.9114C22.5253 14.9468 22.4427 15.0294 22.36 15.0767C22.2774 15.1239 22.1947 15.1948 22.1121 15.242L22.0766 15.2774L21.8287 15.3955C21.8287 15.3955 21.7932 15.3955 21.7932 15.4309C21.5925 15.549 21.4272 15.6317 21.2265 15.7616C21.191 15.7616 21.191 15.797 21.191 15.797L20.9431 15.9151C20.8958 15.9151 20.8958 15.9505 20.8958 15.9505C20.6951 16.0331 20.4943 16.1512 20.2936 16.2339C20.2582 16.2339 20.2582 16.2693 20.2109 16.2693C20.1283 16.3165 20.0456 16.352 19.963 16.352C19.9276 16.352 19.9276 16.3874 19.8803 16.3874C19.7977 16.4228 19.6796 16.47 19.5615 16.5055C19.4434 16.5409 19.3608 16.5881 19.2309 16.6235C19.1954 16.6235 19.1954 16.6235 19.1482 16.659C19.0656 16.7062 18.9829 16.7062 18.9002 16.7416C18.853 16.7416 18.853 16.7771 18.8176 16.7771C18.7349 16.8125 18.6168 16.8125 18.5342 16.8597H18.4988C18.3807 16.9069 18.298 16.9424 18.1681 16.9424C18.1327 16.9424 18.1327 16.9424 18.0855 16.9778C18.0028 17.0132 17.9202 17.0132 17.8021 17.0604C17.7667 17.0604 17.7194 17.0604 17.7194 17.1077C17.6368 17.1431 17.5187 17.1431 17.436 17.1903H17.3534C17.2353 17.2258 17.1054 17.2258 16.9873 17.273H16.9047C16.822 17.3202 16.7039 17.3202 16.6213 17.3202C16.5858 17.3202 16.5386 17.3202 16.5032 17.3557C16.4205 17.3557 16.3024 17.3911 16.2198 17.3911H16.1371C16.019 17.4265 15.8892 17.4265 15.7711 17.4265H15.6884C15.6058 17.4265 15.4877 17.4619 15.3578 17.4619H15.2397C15.1571 17.4619 15.039 17.5092 14.9563 17.5092H14.8382C14.7201 17.5092 14.5903 17.5446 14.4722 17.5446H12.2877C12.1696 17.5446 12.0397 17.5446 11.9216 17.5092H11.8862C11.7681 17.5092 11.6382 17.5092 11.5201 17.4619H11.4021C11.3194 17.4619 11.2013 17.4619 11.1187 17.4265H11.0006C10.8825 17.4265 10.7526 17.3911 10.6345 17.3911H10.5991C10.481 17.3911 10.3984 17.3557 10.2685 17.3557H10.1504C10.0677 17.3557 9.94965 17.3202 9.86699 17.3202H9.79614C9.67806 17.273 9.54817 17.273 9.43009 17.2376H9.39467C9.31201 17.2021 9.19393 17.2021 9.11127 17.1549C9.07585 17.1549 9.02861 17.1549 8.99319 17.1195C8.91053 17.0723 8.82787 17.0723 8.74522 17.0368C8.70979 17.0368 8.70979 17.0368 8.66256 17.0014C8.54448 16.966 8.41459 16.966 8.33193 16.9187H8.24927C8.16662 16.8715 8.04854 16.8715 7.96588 16.8361C7.91865 16.8361 7.88322 16.8007 7.88322 16.8007C7.80056 16.7652 7.71791 16.7652 7.63525 16.718C7.59982 16.718 7.59982 16.718 7.55259 16.6708C7.43451 16.6354 7.35185 16.5881 7.22196 16.5527C7.18654 16.5527 7.18654 16.5527 7.13931 16.5173C7.05665 16.47 6.97399 16.4346 6.89133 16.4346C6.85591 16.4346 6.80868 16.3992 6.80868 16.3992C6.72602 16.3638 6.64336 16.3165 6.56071 16.3165C6.52528 16.3165 6.52528 16.3165 6.47805 16.2693C6.39539 16.2339 6.27731 16.1866 6.15923 16.1512C6.1238 16.1512 6.1238 16.1158 6.07657 16.1158L5.8286 15.9977C5.79318 15.9977 5.79317 15.9623 5.74594 15.9623L5.49797 15.8442C5.49797 15.8442 5.45074 15.8442 5.45074 15.8088C5.36808 15.7734 5.25 15.7261 5.16734 15.6435C5.13192 15.6435 5.13192 15.608 5.08468 15.608C5.00203 15.5726 4.91937 15.5254 4.88395 15.49C4.83671 15.49 4.83671 15.4545 4.80129 15.4545L4.55332 15.3365C4.55332 15.3365 4.51789 15.3365 4.51789 15.2892C4.43524 15.2538 4.35258 15.1711 4.26992 15.1239C4.22269 15.1239 4.22269 15.0767 4.18726 15.0767C4.10461 15.0413 4.06918 14.994 3.98653 14.9586C3.9511 14.9586 3.9511 14.9232 3.90387 14.9232C3.82121 14.8759 3.73855 14.8405 3.70313 14.7579C3.70313 14.7579 3.6677 14.7579 3.6677 14.7224C3.58505 14.6752 3.50239 14.6043 3.41973 14.5571C3.38431 14.5571 3.38431 14.5217 3.38431 14.5217C3.34888 14.4745 3.26623 14.439 3.21899 14.3564C3.18357 14.3564 3.18357 14.321 3.13634 14.321C3.05368 14.2737 3.01826 14.2029 2.9356 14.1556C2.85294 14.073 2.77028 14.0376 2.73486 13.9549C2.69943 13.9549 2.69944 13.9195 2.69944 13.9195L2.4987 13.7187L2.46327 13.6715C2.54593 13.5534 2.58135 13.5062 2.62859 13.4708C2.7939 13.3881 2.87656 13.4353 3.2308 13.518C3.63228 13.6007 4.04557 13.6833 4.44704 13.7187C6.63155 14.0021 7.61163 14.0848 11.4257 13.7542C12.1578 13.6715 12.6419 13.4235 12.8899 12.9866C12.9253 12.9512 12.9253 12.904 12.9725 12.8213C13.0198 12.8567 13.0198 12.904 13.0552 12.9866C13.3032 13.4353 13.8227 13.6715 14.5194 13.7542C18.3334 14.073 19.3017 14.0021 21.4862 13.7187C21.8877 13.6715 22.301 13.6007 22.7025 13.518C23.0685 13.4353 23.1512 13.4353 23.3047 13.4708C23.3873 13.518 23.4228 13.5534 23.5527 13.8014C23.8242 13.8722 23.8242 13.8722 23.777 13.9195C23.777 13.8722 23.777 13.8722 23.777 13.9195ZM24.1076 5.60652L24.1903 5.68918C24.273 5.77184 24.3084 5.8545 24.391 5.93715C24.4265 5.98438 24.4265 5.98439 24.4265 6.01981C24.4619 6.05524 24.5091 6.10247 24.5091 6.13789C24.5445 6.18513 24.5445 6.18512 24.5445 6.22055C24.5918 6.25597 24.6272 6.3032 24.6272 6.33863C24.6626 6.38586 24.6626 6.38586 24.6626 6.42129C24.7453 6.5866 24.8634 6.70468 24.946 6.87C24.946 6.90542 24.9933 6.90542 24.9933 6.95266C25.0287 6.99989 25.0287 7.03531 25.0759 7.07074C25.0759 7.10616 25.1113 7.10616 25.1113 7.15339C25.1468 7.20063 25.1468 7.23605 25.194 7.27147C25.194 7.3069 25.2294 7.3069 25.2294 7.35413C25.2648 7.43679 25.3121 7.55487 25.3475 7.63753C25.3475 7.67295 25.3475 7.67295 25.3947 7.67295C25.3947 7.70838 25.4302 7.75561 25.4302 7.79104C25.4302 7.82646 25.4656 7.87369 25.4656 7.87369C25.4656 7.90912 25.501 7.95635 25.501 7.99177C25.501 8.0272 25.5364 8.07443 25.5364 8.07443C25.5364 8.10986 25.5837 8.15709 25.5837 8.19251C25.5837 8.22794 25.5837 8.27517 25.6191 8.27517C25.6545 8.35783 25.6545 8.44048 25.6545 8.52314C25.6545 8.55857 25.6545 8.6058 25.6899 8.6058C25.6899 8.64122 25.6899 8.68846 25.7254 8.72388V8.97185C24.5918 8.80654 22.8087 8.80654 20.2582 9.50322C19.3726 9.86927 18.5578 10.1054 17.7076 10.4715C17.8729 9.65673 17.9084 8.40506 17.8257 7.47221C17.743 6.42129 18.1563 5.37036 18.3925 4.79176L18.4279 4.67368C18.4751 4.59102 18.4751 4.50836 18.546 4.47294H18.6641C18.7467 4.47294 18.8648 4.50836 18.9475 4.50836C19.4788 4.5556 20.0811 4.22497 20.2464 4.14231C20.3645 4.05965 20.5298 4.02423 20.6951 3.977C20.8132 3.94157 20.9431 3.89434 21.0966 3.85891C21.1792 3.82349 21.2619 3.82349 21.38 3.82349C21.498 3.82349 21.6634 3.78806 21.8287 3.74083C22.7261 4.30762 23.4936 4.92165 24.1076 5.60652ZM19.8095 0.906871C19.9276 0.824214 20.2109 0.942297 20.577 1.22569C20.6597 1.30835 20.7423 1.34377 20.825 1.39101C21.0729 1.55632 21.5571 1.83972 21.5925 2.04046C21.5925 2.07588 21.5925 2.12311 21.5571 2.15854V2.19396C21.4744 2.31204 21.3563 2.52459 21.2737 2.56002L21.191 2.64267C21.0257 2.80799 20.7895 2.9733 20.7069 2.9733C20.4589 2.93788 20.3054 2.89064 20.1047 2.80799C20.2228 2.32385 20.3881 2.44193 20.7069 2.60725C20.7069 2.52459 20.6715 2.48917 20.6715 2.40651L20.9194 2.28843L20.636 2.253C20.6006 2.05227 20.6006 1.88695 20.6006 1.68621C20.518 1.80429 20.518 1.93418 20.4825 2.01684C20.4471 2.0995 20.3645 2.18215 20.3172 2.21758L20.1519 2.05227C20.0692 1.96961 19.9512 1.88695 19.8685 1.85153C19.8685 1.88695 19.8331 1.88695 19.8331 1.88695C20.1165 2.28843 20.1165 2.37108 19.7977 2.73714C19.5143 3.05596 19.2309 3.30393 18.9475 3.58733C19.1482 3.70541 19.3962 3.62275 19.6796 3.33936C20.0456 2.93788 20.0456 2.93788 20.5298 3.13861L20.6124 3.17404C20.8132 3.2567 20.9312 3.13862 21.132 3.05596C21.2501 3.02054 21.4154 2.93788 21.5335 2.93788H21.5807C21.8641 2.89065 22.0294 2.89065 22.0648 2.93788C22.0648 2.93788 22.1003 2.9733 22.1003 3.02053C22.1003 3.22127 21.9349 3.30393 21.4154 3.35116C21.2973 3.35116 21.1674 3.38659 21.0139 3.43382C20.8958 3.46924 20.8132 3.51648 20.6833 3.51648C20.4825 3.56371 20.3172 3.59914 20.1637 3.71722C19.8331 3.88253 19.4316 4.04785 19.1128 4.04785C19.0301 4.04785 18.9475 4.04785 18.912 4.01242C18.6287 3.977 18.3925 3.97699 18.1799 4.49655L18.1445 4.61464C17.9438 5.18143 17.4951 6.31502 17.5423 7.49583C17.625 8.67665 17.4951 10.2589 17.2943 10.7785L17.0109 11.3099L17.5423 11.0619C17.5777 11.0147 22.2065 8.99547 25.808 9.56226V9.72758C25.7726 10.0582 25.7254 10.5423 25.6073 11.0265C25.3593 11.9239 24.8752 12.7741 24.1903 13.5062C24.1076 13.3055 23.9896 13.1756 23.7416 13.1047C23.6235 13.0575 23.4936 13.0221 23.3755 13.0221C23.2102 13.0221 23.0095 13.0575 22.856 13.1047C22.4545 13.1874 22.0884 13.27 21.6752 13.3054C19.5261 13.5888 18.5578 13.6715 14.7792 13.3409C14.2124 13.3055 13.8463 13.0929 13.6456 12.8095C13.2441 12.1246 13.8463 10.7785 14.3305 9.69215C14.4486 9.40875 14.5785 9.12536 14.6965 8.87739C15.2988 7.37775 15.9128 6.04342 16.2788 5.26409L16.3615 5.09877C16.8102 4.16593 17.2471 3.48105 17.7785 2.86703C18.4279 2.20577 19.5261 1.14303 19.8095 0.906871ZM13.3268 1.63898C14.9445 1.63898 16.4914 1.83972 17.8611 2.20577C17.6958 2.37108 17.5777 2.48917 17.4596 2.65448C16.8338 3.35116 16.3261 4.14231 15.96 5.00431L15.8774 5.16962C15.5113 5.98438 14.8618 7.31871 14.2951 8.81835C14.2124 9.06632 14.0943 9.30248 13.9644 9.58588C13.681 10.1881 13.3976 10.8494 13.2323 11.487C13.067 10.8375 12.7482 10.1881 12.5002 9.58588L12.1696 8.81835C11.5674 7.31871 10.9533 5.98438 10.5873 5.16962L10.5046 5.00431C10.0559 4.03604 9.57179 3.30393 9.005 2.65448C8.88692 2.5364 8.75702 2.40651 8.63894 2.253C10.0441 1.83972 11.6146 1.63898 13.3268 1.63898ZM4.39981 2.9733C4.43524 2.93788 4.64778 2.93788 4.88395 2.9733H4.9666L5.33266 3.09138C5.5334 3.20946 5.65148 3.29212 5.85222 3.20946C5.88764 3.20946 5.93487 3.17404 5.93487 3.17404C6.41901 3.00873 6.41901 3.00873 6.78506 3.37478C7.06846 3.6936 7.30462 3.74083 7.51717 3.62275C7.23377 3.33935 6.91495 3.05596 6.66698 2.77256C6.34816 2.40651 6.34816 2.28843 6.63155 1.92237C6.63155 1.87514 6.59613 1.87514 6.59613 1.87514C6.51347 1.9578 6.39539 1.99322 6.31273 2.07588L6.14742 2.2412C6.06476 2.15854 5.98211 2.12311 5.98211 2.04046C5.94668 1.9578 5.94668 1.83972 5.86402 1.72164C5.86402 1.88695 5.8286 2.08769 5.8286 2.28843L5.5452 2.37109L5.79317 2.48917L5.75775 2.65448C6.04115 2.45374 6.24189 2.33566 6.35997 2.85522C6.15923 2.93788 5.95849 2.93788 5.75775 3.02053C5.67509 3.05596 5.42712 2.85522 5.22638 2.68991C5.22638 2.65448 5.19096 2.65448 5.19096 2.65448L5.07288 2.5364C4.99022 2.45374 4.95479 2.33566 4.90756 2.28843V2.253C4.87214 2.21758 4.87214 2.17035 4.87214 2.13492C4.90756 1.93418 5.40351 1.60355 5.63967 1.48547C5.72233 1.45005 5.80498 1.36739 5.88764 1.32016C6.21827 1.03676 6.53709 0.871448 6.65517 0.98953C6.93857 1.2375 7.98949 2.28843 8.68618 2.9733C9.21754 3.54009 9.65445 4.2722 10.1032 5.20504L10.1858 5.37036C10.5519 6.18513 11.2013 7.51945 11.7681 8.97185C11.8508 9.21983 11.9688 9.50322 12.1342 9.78662C12.6183 10.8848 13.2323 12.2191 12.819 12.904C12.6537 13.2228 12.2522 13.3881 11.6855 13.4353C7.91865 13.766 6.9858 13.6833 4.78948 13.3999C4.388 13.3645 4.02195 13.2818 3.60866 13.1992C3.24261 13.1165 3.04187 13.0811 2.72305 13.1638C2.55774 13.1992 2.47508 13.3291 2.39242 13.4471C1.57766 12.4789 1.0581 11.3807 0.92821 10.1999V9.66854C4.54151 9.06632 8.91053 11.0855 8.95776 11.1327L9.48913 11.3807L9.28839 10.8494C9.08765 10.318 8.95776 8.73569 9.04042 7.56668C9.12308 6.39767 8.67437 5.25228 8.4382 4.68549L8.40278 4.5674C8.20204 4.03604 7.95407 4.03604 7.67067 4.08327C7.58802 4.08327 7.50536 4.1187 7.46994 4.1187C7.13931 4.1187 6.7024 3.95338 6.41901 3.79987C6.25369 3.71722 6.05295 3.63456 5.88764 3.59914C5.76956 3.56371 5.6869 3.56371 5.56882 3.51648C5.45074 3.48105 5.32085 3.43382 5.16734 3.43382C4.63597 3.35116 4.48247 3.26851 4.48247 3.10319C4.36439 3.00873 4.36439 2.9733 4.39981 2.9733ZM4.73044 3.77626C4.8131 3.81168 4.93118 3.81168 5.01384 3.81168C5.09649 3.81168 5.21457 3.84711 5.29723 3.84711C5.41531 3.88253 5.5452 3.92976 5.69871 3.96519C5.86402 4.00061 5.98211 4.04785 6.14742 4.1305C6.31273 4.21316 6.91495 4.53198 7.44632 4.49655C7.52898 4.49655 7.64706 4.49656 7.72971 4.46113H7.8478C7.8478 4.46113 7.88322 4.49656 7.96588 4.66187L8.0013 4.77995C8.20204 5.34675 8.65075 6.39767 8.56809 7.46041C8.48544 8.39325 8.52086 9.64492 8.68618 10.4597C7.46993 9.92831 3.98653 8.67665 0.904593 9.16078C0.940018 8.84196 0.987251 8.55857 1.06991 8.22794V8.19251C1.06991 8.14528 1.10533 8.10986 1.10533 8.07443C1.10533 8.03901 1.14076 7.99177 1.14076 7.95635V7.92092C1.22341 7.67295 1.3415 7.40136 1.47139 7.15339C1.47139 7.15339 1.47139 7.11797 1.50681 7.11797C1.50681 7.11797 1.50681 7.08255 1.54223 7.08255C1.57766 7.04712 1.57766 6.99989 1.62489 6.96446C2.2153 5.72461 3.31346 4.67368 4.73044 3.77626ZM22.36 3.49286C22.4427 3.37478 22.5253 3.24489 22.5253 3.09138C22.5253 2.92607 22.4427 2.77256 22.3246 2.64267C22.2065 2.56002 22.0766 2.52459 21.9231 2.52459C21.9231 2.52459 21.9231 2.47736 21.9704 2.47736C22.053 2.35928 22.0884 2.19396 22.053 2.02865C21.9704 1.62717 21.4508 1.29654 21.0848 1.06038C21.0021 1.02495 20.9194 0.977721 20.884 0.942296C20.1519 0.34008 19.7504 0.41093 19.5497 0.576244C19.349 0.741559 18.8648 1.22569 18.3334 1.75706C16.7866 1.35558 15.0862 1.10761 13.3504 1.10761C11.5319 1.10761 9.78434 1.35558 8.20204 1.79248C7.67067 1.26112 7.15111 0.776983 6.93857 0.576244C6.73783 0.41093 6.28912 0.292847 5.60424 0.942296C5.56882 0.977721 5.48616 1.02495 5.40351 1.06038C5.03745 1.26112 4.50608 1.59175 4.43524 2.02865C4.39981 2.19396 4.43524 2.35928 4.51789 2.47736C4.51789 2.47736 4.51789 2.52459 4.56513 2.52459C4.39981 2.52459 4.28173 2.56002 4.16365 2.64267C4.04557 2.76076 3.96291 2.89064 3.96291 3.09138C3.96291 3.33935 4.04557 3.45744 4.16365 3.57552C1.81382 5.07516 0.349609 7.22424 0.349609 9.53864V10.07C0.349609 15.0176 5.41531 19.0324 13.3268 19.0324C21.2737 19.0324 26.304 15.0176 26.304 10.07V9.58588C26.2922 7.18882 24.7925 5.03973 22.36 3.49286Z" fill="#F7F7FF"/>
</g>
<defs>
<clipPath id="clip0_120_1143">
<rect width="71.6" height="19.2473" fill="white"/>
</clipPath>
</defs>
</svg>
