<svg width="39" height="30" viewBox="0 0 39 30" fill="none" xmlns="http://www.w3.org/2000/svg">
<g clip-path="url(#clip0_120_1088)">
<path d="M37.8005 29.5932V29.6703H37.8724C37.8859 29.6705 37.8992 29.6671 37.911 29.6605C37.9157 29.6572 37.9194 29.6527 37.922 29.6476C37.9245 29.6424 37.9257 29.6367 37.9254 29.631C37.9257 29.6253 37.9245 29.6198 37.922 29.6147C37.9194 29.6097 37.9156 29.6054 37.911 29.6022C37.8994 29.5953 37.886 29.5918 37.8724 29.5924H37.8005V29.5932ZM37.8732 29.5386C37.904 29.5367 37.9345 29.5456 37.9596 29.5637C37.9696 29.5719 37.9776 29.5824 37.9828 29.5942C37.9881 29.6061 37.9905 29.619 37.9898 29.6319C37.9903 29.6431 37.9884 29.6542 37.9842 29.6645C37.98 29.6749 37.9736 29.6842 37.9655 29.6919C37.9462 29.7087 37.922 29.7188 37.8965 29.7206L37.9929 29.8305H37.9187L37.83 29.7214H37.8013V29.8305H37.7392V29.5388H37.8742L37.8732 29.5386ZM37.8539 29.9312C37.8865 29.9315 37.9187 29.9249 37.9486 29.9119C37.9774 29.8995 38.0035 29.8818 38.0257 29.8596C38.0479 29.8375 38.0657 29.8113 38.0779 29.7825C38.1032 29.7214 38.1032 29.6527 38.0779 29.5916C38.0655 29.5629 38.0478 29.5368 38.0257 29.5145C38.0035 29.4924 37.9773 29.4747 37.9486 29.4623C37.9185 29.45 37.8864 29.4438 37.8539 29.4441C37.8209 29.4438 37.7882 29.45 37.7575 29.4623C37.7281 29.4744 37.7013 29.4922 37.6787 29.5145C37.6445 29.5495 37.6215 29.5937 37.6123 29.6417C37.6032 29.6897 37.6083 29.7394 37.6272 29.7844C37.6389 29.8134 37.6564 29.8396 37.6787 29.8616C37.7013 29.8839 37.7281 29.9016 37.7575 29.9138C37.788 29.9268 37.8208 29.9334 37.8539 29.9331M37.8539 29.374C37.9386 29.3739 38.02 29.4071 38.0805 29.4665C38.1096 29.495 38.1328 29.529 38.1487 29.5666C38.1652 29.6051 38.1737 29.6466 38.1737 29.6885C38.1737 29.7304 38.1652 29.7719 38.1487 29.8105C38.1324 29.8478 38.1093 29.8817 38.0805 29.9105C38.0509 29.9389 38.0165 29.9617 37.9788 29.978C37.9393 29.9948 37.8968 30.0033 37.8539 30.0031C37.8105 30.0034 37.7675 29.9949 37.7274 29.978C37.6894 29.9621 37.6547 29.9392 37.6251 29.9105C37.5962 29.8807 37.5734 29.8456 37.5578 29.8072C37.5413 29.7686 37.5328 29.7272 37.5328 29.6852C37.5328 29.6433 37.5413 29.6018 37.5578 29.5633C37.5737 29.5258 37.5969 29.4917 37.626 29.4632C37.6552 29.434 37.69 29.4111 37.7284 29.3958C37.7684 29.3789 37.8115 29.3704 37.8549 29.3707M8.33206 28.2474C8.33206 27.6912 8.69645 27.2342 9.29202 27.2342C9.86117 27.2342 10.2452 27.6715 10.2452 28.2474C10.2452 28.8233 9.86117 29.2606 9.29202 29.2606C8.69645 29.2606 8.33206 28.8037 8.33206 28.2474ZM10.894 28.2474V26.6645H10.2059V27.0501C9.98765 26.7652 9.65661 26.5864 9.20642 26.5864C8.31953 26.5864 7.62351 27.2821 7.62351 28.2482C7.62351 29.2143 8.31914 29.91 9.20642 29.91C9.65642 29.91 9.98765 29.731 10.2059 29.4463V29.8305H10.8932V28.2474H10.894ZM34.1444 28.2474C34.1444 27.6912 34.5088 27.2342 35.1046 27.2342C35.6743 27.2342 36.0578 27.6715 36.0578 28.2474C36.0578 28.8233 35.6743 29.2606 35.1046 29.2606C34.509 29.2606 34.1444 28.8037 34.1444 28.2474ZM36.7071 28.2474V25.394H36.0184V27.0501C35.8002 26.7652 35.4691 26.5864 35.0189 26.5864C34.1321 26.5864 33.436 27.2821 33.436 28.2482C33.436 29.2143 34.1317 29.91 35.0189 29.91C35.4691 29.91 35.8002 29.731 36.0184 29.4463V29.8305H36.7071V28.2474ZM19.4344 27.2017C19.8778 27.2017 20.1626 27.4797 20.2353 27.9692H18.5934C18.6668 27.5123 18.9443 27.2017 19.4346 27.2017M19.4483 26.5847C18.5209 26.5847 17.8721 27.2595 17.8721 28.2465C17.8721 29.2527 18.5469 29.9082 19.4943 29.9082C19.9709 29.9082 20.4074 29.7893 20.7915 29.4648L20.4543 28.9548C20.189 29.1669 19.8512 29.2859 19.5337 29.2859C19.0902 29.2859 18.6865 29.0805 18.5872 28.5108H20.9369C20.9436 28.4252 20.9506 28.3388 20.9506 28.2463C20.9436 27.2597 20.3336 26.5845 19.4479 26.5845M27.7557 28.2463C27.7557 27.69 28.1201 27.2331 28.7157 27.2331C29.2848 27.2331 29.6689 27.6704 29.6689 28.2463C29.6689 28.8222 29.2848 29.2594 28.7157 29.2594C28.1201 29.2594 27.7555 28.8025 27.7555 28.2463M30.3175 28.2463V26.6645H29.6297V27.0501C29.4107 26.7652 29.0805 26.5864 28.6303 26.5864C27.7434 26.5864 27.0474 27.2821 27.0474 28.2482C27.0474 29.2143 27.743 29.91 28.6303 29.91C29.0805 29.91 29.4107 29.731 29.6297 29.4463V29.8305H30.3177V28.2474L30.3175 28.2463ZM23.8698 28.2463C23.8698 29.2062 24.538 29.908 25.558 29.908C26.0346 29.908 26.3521 29.802 26.6955 29.5307L26.365 28.9745C26.1067 29.1601 25.8354 29.2594 25.536 29.2594C24.9867 29.2527 24.5828 28.8555 24.5828 28.2463C24.5828 27.637 24.9867 27.24 25.536 27.2331C25.8346 27.2331 26.1059 27.3324 26.365 27.5181L26.6955 26.9618C26.3515 26.6905 26.034 26.5845 25.558 26.5845C24.538 26.5845 23.8698 27.2861 23.8698 28.2463ZM32.7406 26.5845C32.3436 26.5845 32.0851 26.7702 31.9064 27.0482V26.6645H31.2244V29.8288H31.9133V28.055C31.9133 27.5314 32.1383 27.2404 32.5881 27.2404C32.7354 27.2383 32.8817 27.2654 33.0184 27.32L33.2305 26.6715C33.0782 26.6115 32.8796 26.5851 32.7402 26.5851M14.296 26.9161C13.965 26.6979 13.5088 26.5851 13.0056 26.5851C12.2039 26.5851 11.6878 26.9693 11.6878 27.5981C11.6878 28.114 12.072 28.4323 12.7796 28.5316L13.1047 28.5779C13.482 28.6309 13.6601 28.7302 13.6601 28.9089C13.6601 29.1536 13.4095 29.2932 12.9389 29.2932C12.4623 29.2932 12.1183 29.1409 11.8864 28.9621L11.563 29.4987C11.9403 29.7767 12.417 29.9094 12.9331 29.9094C13.847 29.9094 14.3766 29.479 14.3766 28.8765C14.3766 28.3203 13.9598 28.0294 13.2711 27.9301L12.9468 27.883C12.6489 27.8445 12.4102 27.7845 12.4102 27.5724C12.4102 27.3411 12.6352 27.2019 13.0127 27.2019C13.4166 27.2019 13.8076 27.3542 13.9993 27.4731L14.2972 26.9169L14.296 26.9161ZM23.1747 26.5857C22.7778 26.5857 22.5192 26.7713 22.3412 27.0493V26.6645H21.6593V29.8288H22.3474V28.055C22.3474 27.5314 22.5724 27.2404 23.0222 27.2404C23.1695 27.2383 23.3158 27.2654 23.4526 27.32L23.6646 26.6715C23.5123 26.6115 23.3137 26.5851 23.1743 26.5851M17.3028 26.6645H16.1776V25.7046H15.4819V26.6645H14.8401V27.2934H15.4819V28.7369C15.4819 29.4711 15.7669 29.9084 16.5809 29.9084C16.8796 29.9084 17.2235 29.8159 17.4418 29.6637L17.243 29.0745C17.0377 29.1935 16.8126 29.2535 16.6337 29.2535C16.2898 29.2535 16.1776 29.0414 16.1776 28.7238V27.294H17.3028V26.6645ZM7.01503 29.8296V27.8437C7.01503 27.0958 6.53842 26.5926 5.7701 26.5859C5.36618 26.5791 4.94954 26.7048 4.65783 27.1488C4.43958 26.7979 4.09562 26.5859 3.61207 26.5859C3.27409 26.5859 2.94382 26.6851 2.68527 27.0557V26.6645H1.99658V29.8288H2.69067V28.0743C2.69067 27.525 2.9953 27.2331 3.46573 27.2331C3.92267 27.2331 4.15384 27.531 4.15384 28.0673V29.8284H4.84947V28.0739C4.84947 27.5246 5.16702 27.2327 5.62377 27.2327C6.09363 27.2327 6.31785 27.5306 6.31785 28.067V29.828L7.01503 29.8296Z" fill="#F7F7FF"/>
<path d="M38.1928 19.3037V18.841H38.0723L37.9329 19.1585L37.7943 18.841H37.6734V19.3037H37.759V18.9551L37.8893 19.2559H37.978L38.1083 18.9544V19.3037H38.1932H38.1928ZM37.4283 19.3037V18.9202H37.5826V18.8422H37.1885V18.9202H37.3427V19.3037H37.4276H37.4283Z" fill="#F79410"/>
<path d="M24.4967 21.2882H14.0688V2.54788H24.4969L24.4967 21.2882Z" fill="#F7F7FF"/>
<path d="M14.7301 11.9185C14.7301 8.11697 16.51 4.7306 19.2817 2.54827C17.1837 0.893926 14.5887 -0.00394247 11.9169 5.33359e-06C5.33522 5.33359e-06 0 5.33599 0 11.9185C0 18.5009 5.33522 23.8369 11.9169 23.8369C14.5888 23.8409 17.1838 22.943 19.2819 21.2886C16.5104 19.1067 14.7301 15.7201 14.7301 11.9185Z" fill="#9C9C9F"/>
<path d="M38.5651 11.9184C38.5651 18.5009 33.2299 23.8369 26.6482 23.8369C23.9761 23.8408 21.3807 22.943 19.2822 21.2886C22.0547 19.1063 23.8347 15.7201 23.8347 11.9184C23.8347 8.11677 22.0547 4.73059 19.2822 2.54826C21.3807 0.893969 23.9759 -0.0038809 26.648 -2.74796e-06C33.2297 -2.74796e-06 38.5649 5.33599 38.5649 11.9184" fill="#D8D8DD"/>
</g>
<defs>
<clipPath id="clip0_120_1088">
<rect width="38.5604" height="30" fill="white"/>
</clipPath>
</defs>
</svg>
