<svg width="98" height="23" viewBox="0 0 98 23" fill="none" xmlns="http://www.w3.org/2000/svg">
<g clip-path="url(#clip0_120_1113)">
<path d="M49.9941 20.2812H49.0439V0.000430785H49.9941V20.2812Z" fill="#F7F7FF"/>
<path d="M65.527 9.611C64.9566 10.2184 64.729 10.3168 64.3919 10.3578C63.7843 10.4316 61.9435 10.3578 61.9435 10.3578L63.0033 6.87034C63.0033 6.87034 64.5716 6.79069 65.0862 6.87034C65.401 6.91907 65.8924 7.12613 66.0751 7.67422C66.2578 8.22242 66.1616 8.93496 65.527 9.611ZM70.4578 6.17605C70.4214 5.33556 69.6905 4.42197 68.7769 3.98358C67.8633 3.54498 67.3518 3.54498 67.3518 3.54498H59.7144L55.9507 16.9559H60.1895L61.2127 13.2286C62.1994 13.5209 64.9766 13.2652 66.1093 12.8997C67.2421 12.5343 68.2288 12.2055 69.3981 10.2504C70.5675 8.29552 70.4944 7.01654 70.4578 6.17605Z" fill="#F7F7FF"/>
<path d="M82.7725 3.65232L85.4765 12.3128L84.1245 16.9171H88.5461L89.7885 12.3128L97.2797 3.65232H92.4195L88.8385 8.22017L87.4133 3.65232H82.7725Z" fill="#F7F7FF"/>
<path d="M56.4262 21.6664C56.4262 21.7826 56.4544 21.8727 56.5112 21.9368C56.5678 22.0011 56.6345 22.0332 56.7114 22.0332C56.7779 22.0332 56.8421 22.009 56.904 21.9607C56.9658 21.9125 57.0171 21.8325 57.0578 21.7205C57.0986 21.6085 57.119 21.5047 57.119 21.4091C57.119 21.2975 57.0923 21.2121 57.0389 21.1526C56.9855 21.0932 56.9175 21.0635 56.835 21.0635C56.7582 21.0635 56.6882 21.0907 56.625 21.1456C56.5616 21.2004 56.5127 21.281 56.4781 21.3873C56.4435 21.4937 56.4262 21.5867 56.4262 21.6664ZM56.1829 20.8104H56.5653L56.533 20.9636C56.6145 20.8961 56.6909 20.8479 56.7621 20.8188C56.8332 20.7898 56.9096 20.7752 56.991 20.7752C57.1475 20.7752 57.2733 20.8291 57.3684 20.9369C57.4635 21.0447 57.5111 21.2053 57.5111 21.419C57.5111 21.6879 57.4291 21.9151 57.2652 22.1006C57.1247 22.2589 56.9583 22.3381 56.7662 22.3381C56.5685 22.3381 56.4191 22.258 56.3179 22.0978L56.1562 22.8722H55.7529L56.1829 20.8104Z" fill="#F7F7FF"/>
<path d="M58.8504 21.395C58.8504 21.2995 58.8225 21.223 58.7667 21.1653C58.711 21.1077 58.6391 21.0788 58.5511 21.0788C58.4639 21.0788 58.3865 21.1058 58.3191 21.1596C58.2517 21.2135 58.1991 21.2919 58.1617 21.3944C58.1242 21.497 58.1055 21.5915 58.1055 21.6776C58.1055 21.7844 58.1346 21.8691 58.1926 21.9319C58.2507 21.9946 58.3237 22.0261 58.4119 22.0261C58.5224 22.0261 58.6151 21.9789 58.6901 21.8842C58.797 21.7502 58.8504 21.5872 58.8504 21.395ZM57.7007 21.6831C57.7007 21.4069 57.7787 21.1863 57.9347 21.0219C58.0908 20.8576 58.2957 20.7752 58.5495 20.7752C58.7698 20.7752 58.9417 20.8359 59.0654 20.9573C59.1891 21.0786 59.2509 21.2419 59.2509 21.4471C59.2509 21.6888 59.1735 21.8977 59.019 22.074C58.8645 22.25 58.6573 22.3381 58.3978 22.3381C58.2573 22.3381 58.1326 22.31 58.0239 22.2538C57.9153 22.1975 57.8342 22.118 57.7809 22.0149C57.7274 21.9118 57.7007 21.8013 57.7007 21.6831Z" fill="#F7F7FF"/>
<path d="M60.9599 22.3029H60.5804L60.5073 21.3529L60.052 22.3029H59.6782L59.4912 20.8104H59.8496L59.9536 21.811L60.4189 20.8104H60.7856L60.8363 21.811L61.2986 20.8104H61.7034L60.9599 22.3029Z" fill="#F7F7FF"/>
<path d="M62.7515 21.4358C62.7525 21.418 62.7529 21.4044 62.7529 21.395C62.7529 21.2845 62.7281 21.2016 62.6785 21.1463C62.6288 21.091 62.5623 21.0635 62.4789 21.0635C62.3955 21.0635 62.3209 21.0948 62.2546 21.1576C62.1886 21.2204 62.1438 21.3131 62.1204 21.4358H62.7515ZM63.0916 21.6818H62.0798C62.0788 21.6977 62.0784 21.7098 62.0784 21.7184C62.0784 21.8176 62.1067 21.8977 62.1634 21.9586C62.2201 22.0195 62.2892 22.05 62.3707 22.05C62.5047 22.05 62.6091 21.9807 62.684 21.842L63.0453 21.9024C62.975 22.0477 62.881 22.1566 62.7635 22.2292C62.6459 22.3019 62.514 22.3381 62.3679 22.3381C62.1673 22.3381 62.0043 22.2747 61.8787 22.1477C61.7532 22.0207 61.6904 21.8527 61.6904 21.6439C61.6904 21.4396 61.7471 21.2578 61.8606 21.0985C62.0151 20.883 62.2357 20.7752 62.5225 20.7752C62.7051 20.7752 62.8504 20.8317 62.9581 20.9446C63.0659 21.0575 63.1198 21.2157 63.1198 21.419C63.1198 21.5164 63.1104 21.604 63.0916 21.6818Z" fill="#F7F7FF"/>
<path d="M63.5288 20.8104H63.9054L63.8451 21.0998C63.9856 20.8836 64.1378 20.7752 64.3018 20.7752C64.3599 20.7752 64.4223 20.7898 64.4887 20.8188L64.3342 21.1491C64.2976 21.136 64.2587 21.1295 64.2175 21.1295C64.1481 21.1295 64.0777 21.1556 64.006 21.2081C63.9343 21.2606 63.8782 21.3308 63.838 21.4182C63.7976 21.5059 63.7579 21.6448 63.7185 21.8349L63.6202 22.3029H63.2168L63.5288 20.8104Z" fill="#F7F7FF"/>
<path d="M65.4728 21.4358C65.4738 21.418 65.4742 21.4044 65.4742 21.395C65.4742 21.2845 65.4493 21.2016 65.3997 21.1463C65.35 21.091 65.2835 21.0635 65.2002 21.0635C65.1168 21.0635 65.042 21.0948 64.9759 21.1576C64.9099 21.2204 64.8651 21.3131 64.8417 21.4358H65.4728ZM65.8129 21.6818H64.801C64.8 21.6977 64.7997 21.7098 64.7997 21.7184C64.7997 21.8176 64.8279 21.8977 64.8847 21.9586C64.9414 22.0195 65.0104 22.05 65.092 22.05C65.2259 22.05 65.3304 21.9807 65.4053 21.842L65.7665 21.9024C65.6963 22.0477 65.6023 22.1566 65.4847 22.2292C65.3672 22.3019 65.2353 22.3381 65.0892 22.3381C64.8887 22.3381 64.7256 22.2747 64.6 22.1477C64.4744 22.0207 64.4116 21.8527 64.4116 21.6439C64.4116 21.4396 64.4684 21.2578 64.5818 21.0985C64.7364 20.883 64.9569 20.7752 65.2437 20.7752C65.4263 20.7752 65.5717 20.8317 65.6794 20.9446C65.7872 21.0575 65.8411 21.2157 65.8411 21.419C65.8411 21.5164 65.8317 21.604 65.8129 21.6818Z" fill="#F7F7FF"/>
<path d="M66.4073 21.6958C66.4073 21.8026 66.4342 21.8861 66.4881 21.946C66.542 22.006 66.6082 22.036 66.6869 22.036C66.76 22.036 66.8281 22.011 66.8915 21.9607C66.9547 21.9106 67.0053 21.834 67.0433 21.7309C67.0812 21.6279 67.1001 21.529 67.1001 21.4344C67.1001 21.3268 67.0711 21.2395 67.013 21.173C66.9549 21.1065 66.8879 21.0732 66.812 21.0732C66.694 21.0732 66.597 21.1388 66.5211 21.27C66.4453 21.4011 66.4073 21.543 66.4073 21.6958ZM67.3391 22.3029H66.9567L66.9906 22.1414C66.9175 22.2117 66.8455 22.262 66.7748 22.2924C66.7041 22.3229 66.6242 22.3381 66.5351 22.3381C66.3805 22.3381 66.2553 22.2853 66.1592 22.18C66.0631 22.0746 66.0151 21.9187 66.0151 21.7127C66.0151 21.4738 66.0827 21.2578 66.2175 21.0647C66.3524 20.8717 66.5309 20.7752 66.753 20.7752C66.9535 20.7752 67.1038 20.8549 67.2042 21.0143L67.3658 20.2426H67.7691L67.3391 22.3029Z" fill="#F7F7FF"/>
<path d="M69.0507 21.6945C69.0507 21.7947 69.0791 21.8762 69.1358 21.939C69.1924 22.0017 69.2591 22.0332 69.336 22.0332C69.4035 22.0332 69.4679 22.0087 69.5293 21.9601C69.5906 21.9114 69.6417 21.8335 69.6824 21.7267C69.7232 21.6199 69.7435 21.5121 69.7435 21.4035C69.7435 21.2975 69.7162 21.2145 69.6613 21.1541C69.6066 21.0936 69.5403 21.0635 69.4625 21.0635C69.3614 21.0635 69.2741 21.1102 69.201 21.204C69.1009 21.3322 69.0507 21.4958 69.0507 21.6945ZM68.5068 22.3029L68.9368 20.2426H69.3416L69.1968 20.9313C69.2709 20.8751 69.3399 20.835 69.4042 20.8111C69.4684 20.7872 69.5384 20.7752 69.6143 20.7752C69.7718 20.7752 69.8978 20.8279 69.9923 20.9335C70.0869 21.0388 70.1344 21.1923 70.1344 21.3937C70.1344 21.5295 70.112 21.6615 70.0676 21.7893C70.023 21.9172 69.9636 22.0211 69.8891 22.1014C69.8146 22.1814 69.7363 22.2409 69.6543 22.2799C69.5723 22.3187 69.4864 22.3381 69.3965 22.3381C69.1828 22.3381 69.0259 22.2445 68.9256 22.057L68.8736 22.3029H68.5068Z" fill="#F7F7FF"/>
<path d="M70.4013 20.8104H70.8032L70.9044 21.5539C70.9297 21.745 70.9438 21.879 70.9466 21.9558C70.999 21.8031 71.0711 21.6419 71.163 21.4723L71.52 20.8104H71.9472L71.0252 22.4491C70.9493 22.5849 70.8897 22.6801 70.8461 22.7345C70.8024 22.7888 70.75 22.8314 70.6886 22.8623C70.6272 22.8932 70.5535 22.9088 70.4673 22.9088C70.382 22.9088 70.286 22.8936 70.1792 22.8637L70.2143 22.5629C70.263 22.577 70.3104 22.5841 70.3563 22.5841C70.4799 22.5841 70.5816 22.4905 70.6613 22.3029L70.4013 20.8104Z" fill="#F7F7FF"/>
<path d="M75.0737 21.5999L75.3685 21.6743C75.3068 21.9164 75.1956 22.1011 75.0351 22.2281C74.8745 22.3553 74.6782 22.4189 74.4463 22.4189C74.2061 22.4189 74.0109 22.3699 73.8606 22.2722C73.7101 22.1744 73.5956 22.033 73.5171 21.8475C73.4386 21.6622 73.3994 21.4631 73.3994 21.2505C73.3994 21.0185 73.4436 20.8161 73.5323 20.6434C73.6209 20.4706 73.747 20.3394 73.9106 20.2498C74.0743 20.1602 74.2543 20.1154 74.4508 20.1154C74.6737 20.1154 74.8611 20.1721 75.013 20.2856C75.165 20.399 75.2708 20.5585 75.3306 20.7642L75.0404 20.8325C74.9886 20.6703 74.9137 20.5525 74.8155 20.4784C74.7173 20.4046 74.5937 20.3676 74.4447 20.3676C74.2735 20.3676 74.1304 20.4086 74.0154 20.4907C73.9005 20.5727 73.8198 20.6829 73.7731 20.8212C73.7266 20.9594 73.7033 21.102 73.7033 21.2488C73.7033 21.4383 73.7309 21.6037 73.7861 21.745C73.8412 21.8863 73.9271 21.9919 74.0436 22.0617C74.1601 22.1317 74.2862 22.1666 74.422 22.1666C74.587 22.1666 74.7268 22.119 74.8412 22.0238C74.9558 21.9285 75.0333 21.7872 75.0737 21.5999Z" fill="#F7F7FF"/>
<path d="M75.9455 21.3006C75.9455 21.569 76.0177 21.7804 76.1621 21.935C76.3065 22.0893 76.4875 22.1666 76.7054 22.1666C76.9271 22.1666 77.1097 22.0886 77.253 21.9326C77.3963 21.7766 77.468 21.5553 77.468 21.2687C77.468 21.0873 77.4374 20.9291 77.3761 20.7938C77.3147 20.6586 77.2251 20.5538 77.1073 20.4792C76.9892 20.4048 76.8567 20.3676 76.7098 20.3676C76.5011 20.3676 76.3216 20.4393 76.1712 20.5825C76.0208 20.7259 75.9455 20.9653 75.9455 21.3006ZM75.6416 21.296C75.6416 20.9262 75.7409 20.6368 75.9395 20.4277C76.138 20.2185 76.3943 20.1138 76.7084 20.1138C76.9139 20.1138 77.0993 20.1629 77.2644 20.2612C77.4296 20.3595 77.5554 20.4965 77.642 20.6722C77.7287 20.848 77.7719 21.0473 77.7719 21.2701C77.7719 21.496 77.7263 21.6981 77.6353 21.8765C77.544 22.0548 77.4149 22.1897 77.2477 22.2814C77.0806 22.373 76.9003 22.4189 76.7068 22.4189C76.4971 22.4189 76.3097 22.3682 76.1446 22.267C75.9795 22.1656 75.8544 22.0274 75.7693 21.8521C75.6842 21.6768 75.6416 21.4915 75.6416 21.296Z" fill="#F7F7FF"/>
<path d="M78.1489 22.3809V20.1533H78.4513L79.6213 21.9022V20.1533H79.9039V22.3809H79.6016L78.4316 20.6304V22.3809H78.1489Z" fill="#F7F7FF"/>
<path d="M80.4053 22.3809V20.1533H82.0159V20.4162H80.7V21.0985H81.9324V21.3597H80.7V22.118H82.0677V22.3809H80.4053Z" fill="#F7F7FF"/>
<path d="M82.4629 22.3809V20.1533H82.7577V21.258L83.8639 20.1533H84.2636L83.329 21.0558L84.3046 22.3809H83.9156L83.1224 21.2534L82.7577 21.609V22.3809H82.4629Z" fill="#F7F7FF"/>
<path d="M85.1172 22.3809V20.4162H84.3833V20.1533H86.1489V20.4162H85.412V22.3809H85.1172Z" fill="#F7F7FF"/>
<path d="M86.6187 21.4662H87.3739L87.1414 20.8492C87.0705 20.6618 87.0178 20.5079 86.9835 20.3873C86.955 20.5302 86.915 20.672 86.8634 20.8128L86.6187 21.4662ZM85.9761 22.3809L86.8315 20.1533H87.1491L88.0608 22.3809H87.7249L87.4651 21.7062H86.5336L86.2891 22.3809H85.9761Z" fill="#F7F7FF"/>
<path d="M74.1853 12.2054L76.5239 8.614L77.0356 12.2054H74.1853ZM80.1416 3.54498H75.7931L66.5845 16.8098H71.1157L72.3947 14.9095H77.2914L77.4741 16.9559H81.9688L80.1416 3.54498Z" fill="#F7F7FF"/>
<path d="M89.542 19.5572L90.8712 21.2817L89.542 22.9283H90.693L91.899 21.2817L90.5286 19.5572H89.542Z" fill="#F7F7FF"/>
<path d="M90.0304 20.188L89.085 21.2817L90.0465 22.3029L90.4735 21.743L90.0349 21.2817L90.4676 20.7584L90.0304 20.188Z" fill="#F7F7FF"/>
<path fill-rule="evenodd" clip-rule="evenodd" d="M0 1.37065C0 0.617004 0.616547 0.000430785 1.3702 0.000430785H42.6328C43.3865 0.000430785 44.0029 0.617004 44.0029 1.37065V18.9112C44.0029 19.6648 43.3865 20.2812 42.6328 20.2812H1.3702C0.616547 20.2812 0 19.6648 0 18.9112V1.37065Z" fill="#ADADAF"/>
<path fill-rule="evenodd" clip-rule="evenodd" d="M0 1.99163H44.0029V18.2898H0V1.99163Z" fill="#757575"/>
<path fill-rule="evenodd" clip-rule="evenodd" d="M37.2916 6.22446C35.2784 6.22446 33.6372 7.86593 33.6372 9.87903C33.6372 11.8916 35.2784 13.5332 37.2916 13.5332C39.3044 13.5332 40.9456 11.8916 40.9456 9.87903C40.9456 7.86593 39.3044 6.22446 37.2916 6.22446Z" fill="#F7F7FF"/>
<path fill-rule="evenodd" clip-rule="evenodd" d="M7.17086 6.22446C5.15748 6.22446 3.51611 7.86593 3.51611 9.87903C3.51611 11.8916 5.15748 13.5332 7.17086 13.5332C9.18341 13.5332 10.8247 11.8916 10.8247 9.87903C10.8247 7.86593 9.18341 6.22446 7.17086 6.22446Z" fill="#F7F7FF"/>
<path fill-rule="evenodd" clip-rule="evenodd" d="M37.2913 15.6526C34.1112 15.6526 31.5176 13.0593 31.5176 9.87903C31.5176 6.69848 34.1112 4.10541 37.2913 4.10541C40.4717 4.10541 43.0646 6.69848 43.0646 9.87903C43.0646 13.0593 40.4717 15.6526 37.2913 15.6526ZM12.9438 9.87903C12.9438 13.0593 10.3507 15.6526 7.17075 15.6526C3.99003 15.6526 1.39692 13.0593 1.39692 9.87903C1.39692 6.69848 3.99003 4.10541 7.17075 4.10541C10.3507 4.10541 12.9438 6.69848 12.9438 9.87903ZM37.0045 3.00827C33.6216 2.93055 32.0311 5.09983 29.723 7.77534L27.5455 10.2987L30.9936 14.4266C31.8151 15.695 30.2471 16.9535 29.2745 15.7931L26.0866 11.9902L22.9802 15.5913C21.9909 16.7377 20.4409 15.4571 21.28 14.2007L24.6522 10.2792L22.4429 7.64363L23.8641 5.88354L26.111 8.58255L28.0478 6.32954C28.9981 5.22488 29.9673 3.76106 31.2235 3.00827H0V17.2734H7.3002C10.6835 17.2734 12.2194 15.2505 14.465 12.5228L16.5841 9.94902L13.041 5.90232C12.1913 4.65329 13.7293 3.35906 14.7288 4.49667L18.003 8.22532L21.0264 4.55324C21.9887 3.38386 23.5676 4.62892 22.758 5.90447L19.4768 9.90318L21.7466 12.4871L20.3165 14.1805L18.0573 11.6326L16.1733 13.9292C15.2485 15.0554 14.3124 16.492 13.0736 17.2734H44.0029V3.00827H37.0045Z" fill="#F7F7FF"/>
</g>
<defs>
<clipPath id="clip0_120_1113">
<rect width="97.28" height="22.9283" fill="white"/>
</clipPath>
</defs>
</svg>
