<svg width="73" height="20" viewBox="0 0 73 20" fill="none" xmlns="http://www.w3.org/2000/svg">
<g clip-path="url(#clip0_120_1106)">
<path d="M27.2194 4.77H23.1934C23.0601 4.76991 22.9312 4.81743 22.8298 4.90399C22.7285 4.99055 22.6614 5.11047 22.6406 5.24212L21.0123 15.5659C21.0048 15.6138 21.0078 15.6627 21.0211 15.7094C21.0343 15.756 21.0575 15.7992 21.0891 15.836C21.1206 15.8729 21.1598 15.9024 21.2039 15.9226C21.2479 15.9428 21.2959 15.9533 21.3443 15.9532H23.2664C23.3998 15.9533 23.5288 15.9057 23.6301 15.819C23.7315 15.7323 23.7985 15.6123 23.8192 15.4805L24.2583 12.696C24.2789 12.5644 24.3459 12.4444 24.4471 12.3577C24.5484 12.2711 24.6772 12.2234 24.8105 12.2233H26.085C28.737 12.2233 30.2676 10.94 30.6673 8.39687C30.8475 7.28426 30.675 6.41007 30.154 5.79784C29.5818 5.12556 28.5669 4.77 27.2194 4.77ZM27.6839 8.54051C27.4637 9.98514 26.3599 9.98514 25.2926 9.98514H24.6851L25.1113 7.28721C25.1238 7.20827 25.164 7.13639 25.2248 7.08448C25.2856 7.03257 25.3628 7.00405 25.4428 7.00405H25.7212C26.4482 7.00405 27.134 7.00405 27.4884 7.41848C27.6998 7.66573 27.7645 8.03307 27.6839 8.54051ZM39.2539 8.49401H37.3259C37.246 8.49401 37.1687 8.52253 37.108 8.57444C37.0472 8.62635 37.007 8.69823 36.9945 8.77716L36.9091 9.3164L36.7743 9.12096C36.3569 8.5152 35.4262 8.31269 34.4973 8.31269C32.3668 8.31269 30.5472 9.92627 30.1928 12.1898C30.0086 13.3189 30.2705 14.3985 30.911 15.1514C31.4985 15.8437 32.3392 16.1322 33.3394 16.1322C35.056 16.1322 36.0079 15.0284 36.0079 15.0284L35.9219 15.5641C35.9142 15.612 35.9171 15.661 35.9302 15.7077C35.9433 15.7544 35.9663 15.7977 35.9978 15.8346C36.0292 15.8715 36.0683 15.9012 36.1123 15.9216C36.1563 15.942 36.2042 15.9526 36.2527 15.9526H37.9894C38.1227 15.9527 38.2517 15.9051 38.3531 15.8184C38.4545 15.7317 38.5215 15.6117 38.5421 15.4799L39.5841 8.88136C39.5918 8.83357 39.589 8.78469 39.5759 8.73809C39.5628 8.69148 39.5398 8.64827 39.5084 8.61144C39.477 8.57461 39.438 8.54504 39.394 8.52476C39.3501 8.50449 39.3023 8.49399 39.2539 8.49401ZM36.5665 12.2463C36.3805 13.3477 35.5063 14.0871 34.3913 14.0871C33.8315 14.0871 33.3841 13.9075 33.0968 13.5673C32.8119 13.2294 32.7036 12.7484 32.7942 12.2127C32.9679 11.1207 33.8568 10.3572 34.9547 10.3572C35.5022 10.3572 35.9472 10.5391 36.2404 10.8823C36.5341 11.229 36.6507 11.7129 36.5665 12.2463ZM49.5217 8.49401H47.5843C47.4929 8.49415 47.403 8.51659 47.3223 8.55936C47.2415 8.60214 47.1724 8.66397 47.121 8.73949L44.449 12.6754L43.3164 8.89314C43.2816 8.77778 43.2106 8.67668 43.1139 8.60479C43.0172 8.53291 42.9 8.49407 42.7795 8.49401H40.8757C40.8222 8.49387 40.7695 8.50649 40.722 8.53083C40.6744 8.55517 40.6333 8.59052 40.6022 8.63394C40.571 8.67736 40.5507 8.72759 40.5428 8.78046C40.535 8.83333 40.5399 8.8873 40.5572 8.93788L42.6912 15.2003L40.6849 18.0324C40.6493 18.0827 40.6281 18.1417 40.6238 18.2031C40.6195 18.2646 40.6322 18.326 40.6604 18.3807C40.6887 18.4354 40.7315 18.4813 40.7841 18.5133C40.8367 18.5454 40.8971 18.5623 40.9587 18.5623H42.8937C42.984 18.5624 43.0731 18.5406 43.1531 18.4988C43.2332 18.4569 43.3019 18.3963 43.3534 18.3221L49.7972 9.02088C49.8321 8.97056 49.8526 8.91164 49.8564 8.8505C49.8602 8.78937 49.8472 8.72835 49.8189 8.67407C49.7905 8.61979 49.7478 8.57431 49.6954 8.54257C49.643 8.51083 49.5829 8.49404 49.5217 8.49401Z" fill="#F7F7FF"/>
<path d="M55.9358 4.77H51.9092C51.776 4.77005 51.6472 4.81764 51.546 4.90419C51.4448 4.99073 51.3778 5.11057 51.357 5.24212L49.7287 15.5659C49.7212 15.6137 49.724 15.6626 49.7372 15.7092C49.7503 15.7558 49.7734 15.799 49.8049 15.8358C49.8363 15.8726 49.8754 15.9022 49.9193 15.9225C49.9633 15.9427 50.0112 15.9532 50.0596 15.9532H52.1258C52.2191 15.9531 52.3092 15.9197 52.38 15.859C52.4508 15.7984 52.4976 15.7145 52.512 15.6224L52.9741 12.696C52.9948 12.5644 53.0617 12.4444 53.163 12.3577C53.2642 12.2711 53.3931 12.2234 53.5263 12.2233H54.8002C57.4528 12.2233 58.9828 10.94 59.3831 8.39688C59.5639 7.28426 59.3902 6.41007 58.8692 5.79784C58.2976 5.12556 57.2833 4.77 55.9358 4.77ZM56.4003 8.54052C56.1807 9.98514 55.0769 9.98514 54.009 9.98514H53.4021L53.8289 7.28721C53.8411 7.20827 53.8812 7.13633 53.9419 7.08439C54.0026 7.03245 54.0799 7.00395 54.1598 7.00405H54.4382C55.1646 7.00405 55.851 7.00405 56.2054 7.41848C56.4168 7.66573 56.4809 8.03307 56.4003 8.54052ZM67.9697 8.49401H66.0429C65.963 8.49379 65.8857 8.52225 65.825 8.57421C65.7642 8.62617 65.7242 8.69818 65.7121 8.77717L65.6267 9.3164L65.4913 9.12096C65.0739 8.5152 64.1438 8.3127 63.2149 8.3127C61.0844 8.3127 59.2654 9.92628 58.911 12.1898C58.7273 13.3189 58.9881 14.3985 59.6286 15.1514C60.2173 15.8437 61.0568 16.1322 62.0569 16.1322C63.7735 16.1322 64.7254 15.0284 64.7254 15.0284L64.6395 15.5641C64.6318 15.6121 64.6347 15.6612 64.6478 15.708C64.661 15.7548 64.6842 15.7981 64.7157 15.8351C64.7473 15.872 64.7865 15.9017 64.8307 15.922C64.8749 15.9423 64.9229 15.9527 64.9715 15.9526H66.7075C66.8408 15.9526 66.9697 15.9049 67.0709 15.8182C67.1721 15.7315 67.2391 15.6116 67.2597 15.4799L68.3023 8.88136C68.3097 8.83342 68.3066 8.78445 68.2933 8.73781C68.2799 8.69117 68.2567 8.64797 68.2251 8.61117C68.1935 8.57437 68.1543 8.54484 68.1102 8.52462C68.0661 8.50439 68.0182 8.49395 67.9697 8.49401ZM65.2823 12.2463C65.0975 13.3477 64.2221 14.0871 63.1071 14.0871C62.5485 14.0871 62.0999 13.9075 61.8126 13.5673C61.5277 13.2294 61.4206 12.7484 61.51 12.2127C61.6849 11.1207 62.5726 10.3572 63.6705 10.3572C64.218 10.3572 64.663 10.5391 64.9562 10.8823C65.2511 11.229 65.3677 11.7129 65.2823 12.2463ZM70.2426 5.05315L68.5901 15.5659C68.5826 15.6137 68.5855 15.6626 68.5986 15.7092C68.6117 15.7558 68.6348 15.799 68.6663 15.8358C68.6977 15.8726 68.7368 15.9022 68.7807 15.9225C68.8247 15.9427 68.8726 15.9532 68.921 15.9532H70.5822C70.8583 15.9532 71.0926 15.7531 71.135 15.4805L72.7645 5.15735C72.7721 5.1095 72.7692 5.06058 72.756 5.01395C72.7429 4.96732 72.7198 4.92409 72.6884 4.88722C72.6569 4.85036 72.6179 4.82074 72.5739 4.80041C72.53 4.78007 72.4821 4.76949 72.4337 4.76941H70.5734C70.4936 4.76969 70.4164 4.7984 70.3558 4.85039C70.2952 4.90239 70.255 4.97427 70.2426 5.05315Z" fill="#F7F7FF"/>
<path d="M4.2934 17.9594L4.60129 16.0038L3.91547 15.9879H0.640625L2.91647 1.55755C2.92325 1.51346 2.94564 1.47327 2.97957 1.44431C3.01351 1.41535 3.05671 1.39955 3.10132 1.39978H8.62317C10.4563 1.39978 11.7214 1.78125 12.3819 2.53418C12.6916 2.88739 12.8888 3.25649 12.9841 3.66268C13.0842 4.08889 13.086 4.5981 12.9883 5.21916L12.9812 5.26449V5.66244L13.2908 5.83787C13.5272 5.95763 13.7397 6.11963 13.9178 6.31588C14.1827 6.61787 14.354 7.00169 14.4264 7.45675C14.5012 7.92475 14.4764 8.48164 14.354 9.11212C14.2127 9.83738 13.9843 10.469 13.6758 10.9859C13.4037 11.4489 13.0377 11.85 12.6015 12.1633C12.1918 12.4541 11.7049 12.6748 11.1545 12.8161C10.6212 12.955 10.0131 13.0251 9.34607 13.0251H8.91634C8.60904 13.0251 8.31058 13.1358 8.07628 13.3342C7.84232 13.5347 7.68711 13.8117 7.6383 14.1159L7.60593 14.2919L7.06198 17.7387L7.03726 17.8653C7.03078 17.9053 7.0196 17.9253 7.00311 17.9388C6.98715 17.9519 6.96723 17.9592 6.9466 17.9594H4.2934Z" fill="#F7F7FF"/>
<path d="M13.5837 5.31041C13.5672 5.41578 13.5484 5.52351 13.5272 5.63419C12.799 9.37291 10.3077 10.6645 7.12583 10.6645H5.50577C5.11665 10.6645 4.78876 10.9471 4.72812 11.3309L3.89867 16.5914L3.66378 18.0825C3.65442 18.1416 3.658 18.2021 3.67425 18.2597C3.69051 18.3174 3.71906 18.3708 3.75794 18.4163C3.79683 18.4619 3.84512 18.4985 3.89949 18.5235C3.95387 18.5486 4.01303 18.5616 4.07292 18.5617H6.94628C7.28654 18.5617 7.57558 18.3144 7.62915 17.9789L7.65741 17.8329L8.19841 14.3997L8.23314 14.2113C8.28612 13.8746 8.57576 13.6273 8.91601 13.6273H9.34575C12.1296 13.6273 14.3089 12.4971 14.9459 9.22633C15.212 7.86 15.0742 6.71913 14.3702 5.91675C14.147 5.66854 13.8805 5.46307 13.5837 5.31041Z" fill="#F7F7FF"/>
<path d="M12.8218 5.00665C12.5893 4.93939 12.3528 4.88689 12.1136 4.84947C11.6411 4.77685 11.1636 4.74201 10.6855 4.74527H6.3575C6.19279 4.74515 6.03347 4.80395 5.90834 4.91105C5.7832 5.01816 5.70052 5.16649 5.67522 5.32925L4.75452 11.1607L4.72803 11.3309C4.75671 11.1452 4.85089 10.976 4.99352 10.8538C5.13616 10.7315 5.31783 10.6644 5.50568 10.6645H7.12573C10.3076 10.6645 12.7989 9.37232 13.5271 5.63419C13.5489 5.52351 13.5671 5.41578 13.5836 5.31041C13.3914 5.20964 13.1912 5.12517 12.9849 5.05786C12.9308 5.03992 12.8765 5.02285 12.8218 5.00665Z" fill="#9C9C9F"/>
<path d="M5.67517 5.32925C5.70025 5.16645 5.7829 5.01804 5.9081 4.91099C6.03329 4.80394 6.19273 4.74535 6.35746 4.74586H10.6855C11.1982 4.74586 11.6768 4.77942 12.1136 4.85006C12.4092 4.89651 12.7007 4.96599 12.9854 5.05786C13.2003 5.1291 13.3999 5.21328 13.5841 5.31041C13.8008 3.92877 13.5824 2.98805 12.8353 2.13623C12.0118 1.19846 10.5253 0.796974 8.6233 0.796974H3.10145C2.71292 0.796974 2.38149 1.07954 2.32144 1.46395L0.0214587 16.0427C0.0107457 16.1104 0.0148216 16.1796 0.033406 16.2455C0.0519904 16.3115 0.0846423 16.3727 0.129115 16.4248C0.173589 16.4769 0.228828 16.5188 0.291033 16.5476C0.353238 16.5763 0.420934 16.5913 0.489462 16.5914H3.89853L4.75447 11.1607L5.67517 5.32925Z" fill="#9C9C9F"/>
</g>
<defs>
<clipPath id="clip0_120_1106">
<rect width="72.78" height="19.3595" fill="white"/>
</clipPath>
</defs>
</svg>
