<svg width="40" height="40" viewBox="0 0 40 40" fill="none" xmlns="http://www.w3.org/2000/svg">
<path d="M20 5V33.75M20 33.75C17.5467 33.75 15.1967 34.1917 13.025 35M20 33.75C22.4533 33.75 24.8033 34.1917 26.975 35M31.25 8.28333C27.5229 7.76018 23.7637 7.49843 20 7.5C16.1817 7.5 12.425 7.76667 8.75 8.28333M31.25 8.28333C32.9333 8.52167 34.6 8.81167 36.25 9.15M31.25 8.28333L35.6167 26.16C35.82 26.9917 35.44 27.8733 34.635 28.1633C33.5491 28.5531 32.4038 28.7516 31.25 28.75C30.0962 28.7516 28.9509 28.5531 27.865 28.1633C27.06 27.8733 26.68 26.9917 26.8817 26.16L31.25 8.285V8.28333ZM8.75 8.28333C7.06667 8.52167 5.4 8.81167 3.75 9.15M8.75 8.28333L13.1167 26.16C13.32 26.9917 12.94 27.8733 12.135 28.1633C11.0491 28.5531 9.90376 28.7515 8.75 28.75C7.59624 28.7515 6.45095 28.5531 5.365 28.1633C4.56 27.8733 4.18 26.9917 4.38167 26.16L8.75 8.285V8.28333Z" stroke="#F58D61" stroke-width="1.5" stroke-linecap="round" stroke-linejoin="round"/>
</svg>
