<svg width="40" height="40" viewBox="0 0 40 40" fill="none" xmlns="http://www.w3.org/2000/svg">
<path d="M28.1033 7.47838L30.915 4.66505C31.5011 4.07892 32.2961 3.74963 33.125 3.74963C33.9539 3.74963 34.7489 4.07892 35.335 4.66505C35.9211 5.25117 36.2504 6.04614 36.2504 6.87505C36.2504 7.70396 35.9211 8.49892 35.335 9.08505L17.6367 26.7834C16.7555 27.664 15.6689 28.3113 14.475 28.6667L10 30L11.3333 25.525C11.6888 24.3311 12.3361 23.2445 13.2167 22.3634L28.1033 7.47838ZM28.1033 7.47838L32.5 11.875M30 23.3334V31.2501C30 32.2446 29.6049 33.1984 28.9017 33.9017C28.1984 34.605 27.2446 35.0001 26.25 35.0001H8.75C7.75544 35.0001 6.80161 34.605 6.09835 33.9017C5.39509 33.1984 5 32.2446 5 31.2501V13.75C5 12.7555 5.39509 11.8017 6.09835 11.0984C6.80161 10.3951 7.75544 10 8.75 10H16.6667" stroke="#F58D61" stroke-width="1.5" stroke-linecap="round" stroke-linejoin="round"/>
</svg>
