<svg width="59" height="18" viewBox="0 0 59 18" fill="none" xmlns="http://www.w3.org/2000/svg">
<g clip-path="url(#clip0_120_1094)">
<path d="M16.8662 0.429926V17.4915H22.2061V11.1097C22.2061 11.1097 25.9831 11.2399 26.7645 11.1097C27.546 10.9794 29.3693 10.719 30.4112 9.02584C31.4532 7.33271 31.3229 6.0303 31.3229 4.98838C31.3229 3.94642 31.0624 2.12305 29.6298 1.34161C28.1972 0.560166 27.6762 0.429926 25.8528 0.429926C24.0295 0.429926 16.8662 0.429926 16.8662 0.429926Z" fill="#F7F7FF"/>
<path d="M22.2061 3.94642V7.72343C22.2061 7.72343 24.1597 7.72343 24.6806 7.72343C25.2016 7.72343 26.504 7.20247 26.3738 5.90006C26.2435 4.59763 25.7226 4.07666 25.0714 3.94642C24.4201 3.81618 22.2061 3.94642 22.2061 3.94642Z" fill="#3C3744"/>
<path d="M32.8208 0.657845V17.6868H47.2775V14.0075H38.2258V10.0678H46.431V6.61638H38.2258V4.85813H47.2775V0.657845H32.8208Z" fill="#F7F7FF"/>
<path d="M49.231 6.09542H51.1846V2.44865L54.7011 7.13735V0.364803H49.231V6.09542Z" fill="#F7F7FF"/>
<path d="M49.231 9.74216H51.1846V13.2587L54.7011 8.57V17.4264H49.231V9.74216Z" fill="#F7F7FF"/>
<path d="M56.9482 1.24666H57.1575C57.2933 1.24666 57.3782 1.24106 57.412 1.22947C57.4457 1.21801 57.4721 1.19821 57.4914 1.17021C57.5104 1.14221 57.5201 1.10705 57.5201 1.06498C57.5201 1.01783 57.5074 0.979801 57.4823 0.950757C57.457 0.921713 57.4216 0.90335 57.3756 0.895665C57.3526 0.89254 57.2838 0.890977 57.1691 0.890977H56.9482V1.24666ZM56.665 2.05585V0.653807H57.2609C57.4108 0.653807 57.5197 0.666311 57.5874 0.691578C57.6554 0.716714 57.7098 0.761518 57.7505 0.825857C57.7914 0.890326 57.8118 0.964041 57.8118 1.04674C57.8118 1.15198 57.7808 1.23885 57.7189 1.30749C57.6571 1.37599 57.5646 1.4191 57.4417 1.43708C57.5029 1.47276 57.5533 1.51196 57.5933 1.55468C57.6331 1.5974 57.6868 1.6732 57.7544 1.78234L57.9255 2.05585H57.587L57.3824 1.75083C57.3096 1.64168 57.2598 1.57305 57.233 1.54465C57.2063 1.51626 57.1781 1.49686 57.148 1.48631C57.1181 1.47576 57.0705 1.47055 57.0055 1.47055H56.9482V2.05585H56.665Z" fill="#F7F7FF"/>
<path d="M57.2952 0.260872C56.692 0.260872 56.2014 0.751619 56.2014 1.35476C56.2014 1.95791 56.692 2.44866 57.2952 2.44866C57.8984 2.44866 58.389 1.95791 58.389 1.35476C58.389 0.751619 57.8984 0.260872 57.2952 0.260872ZM57.2952 2.70914C56.5485 2.70914 55.9409 2.10156 55.9409 1.35476C55.9409 0.607964 56.5485 0.000390689 57.2952 0.000390689C58.042 0.000390689 58.6495 0.607964 58.6495 1.35476C58.6495 2.10156 58.042 2.70914 57.2952 2.70914Z" fill="#F7F7FF"/>
<path d="M22.1407 3.8813V7.65831H23.4747C24.435 7.65831 25.0773 7.58881 25.4013 7.44956C25.7251 7.31032 25.9789 7.09241 26.1628 6.79582C26.3467 6.49927 26.4387 6.15428 26.4387 5.76076C26.4387 5.27659 26.3096 4.87711 26.0517 4.56233C25.7936 4.24767 25.4672 4.05088 25.0719 3.97208C24.7808 3.91165 24.1963 3.8813 23.3182 3.8813H22.1407ZM16.8892 17.5566V0.364806H23.4563C25.698 0.364806 27.1593 0.452979 27.8402 0.628804C28.8863 0.892541 29.7623 1.46638 30.4681 2.34967C31.1737 3.23336 31.5267 4.37479 31.5267 5.77388C31.5267 6.85336 31.3231 7.76093 30.9165 8.49647C30.5095 9.23223 29.9927 9.80977 29.3658 10.2295C28.7389 10.6494 28.1017 10.9272 27.4542 11.0631C26.574 11.231 25.2995 11.3149 23.6305 11.3149H22.2688V17.5566H16.8892Z" fill="#F7F7FF"/>
<path d="M0 11.826L4.94915 11.5655C5.14425 12.4602 5.40982 13.3557 6.00608 13.8192C6.60214 14.2831 6.91599 14.5147 7.98915 14.5147C9.17052 14.5147 9.27797 14.2965 9.87423 13.8602C10.2752 13.555 10.4759 13.1457 10.4759 12.6328C10.4759 12.2838 10.3674 11.9947 10.1507 11.7656C9.92301 11.5475 9.41341 11.0853 8.62229 10.8997C4.93668 10.0815 3.38209 9.33439 2.39577 8.65791C1.03002 7.71981 0.737844 6.67662 0.737844 5.0076C0.737844 3.50217 1.45875 2.49724 2.64037 1.47172C3.82176 0.446465 5.39324 0.194059 7.87559 0.194059C10.2387 0.194059 11.9947 0.581395 13.1438 1.35594C14.2926 2.13061 14.6091 3.7327 15.0428 5.24886L10.0937 5.50934C9.90924 4.8331 9.76317 4.13892 9.24842 3.77893C8.73346 3.41908 8.14005 3.16498 7.48884 3.16498C6.83764 3.16498 6.54323 3.27803 6.02287 3.616C5.67585 3.85604 5.50251 4.16705 5.50251 4.54866C5.50251 4.87604 5.65423 5.15417 5.9578 5.38327C6.36963 5.68882 6.88068 5.8591 9.3143 6.41553C11.7477 6.97185 13.1864 7.78397 14.1512 8.59111C15.1049 9.40933 15.5821 10.5494 15.5821 12.0111C15.5821 13.6039 14.9208 14.9727 13.5984 16.1182C12.2757 17.2637 10.5798 17.8365 7.98915 17.8365C5.63678 17.8365 3.51461 17.3565 2.14342 16.3964C0.772032 15.4366 0.422722 13.4734 0 11.826Z" fill="#F7F7FF"/>
</g>
<defs>
<clipPath id="clip0_120_1094">
<rect width="58.65" height="17.8365" fill="white"/>
</clipPath>
</defs>
</svg>
