<svg width="24" height="25" viewBox="0 0 24 25" fill="none" xmlns="http://www.w3.org/2000/svg">
<path d="M22.46 6.5C21.69 6.85 20.86 7.08 20 7.19C20.88 6.66 21.56 5.82 21.88 4.81C21.05 5.31 20.13 5.66 19.16 5.86C18.37 5 17.26 4.5 16 4.5C13.65 4.5 11.73 6.42 11.73 8.79C11.73 9.13 11.77 9.46 11.84 9.77C8.28001 9.59 5.11001 7.88 3.00001 5.29C2.63001 5.92 2.42001 6.66 2.42001 7.44C2.42001 8.93 3.17001 10.25 4.33001 11C3.62001 11 2.96001 10.8 2.38001 10.5V10.53C2.38001 12.61 3.86001 14.35 5.82001 14.74C5.19074 14.9122 4.5301 14.9362 3.89001 14.81C4.16162 15.6625 4.69355 16.4084 5.41103 16.9429C6.1285 17.4775 6.99546 17.7737 7.89001 17.79C6.37364 18.9904 4.494 19.6393 2.56001 19.63C2.22001 19.63 1.88001 19.61 1.54001 19.57C3.44001 20.79 5.70001 21.5 8.12001 21.5C16 21.5 20.33 14.96 20.33 9.29C20.33 9.1 20.33 8.92 20.32 8.73C21.16 8.13 21.88 7.37 22.46 6.5Z" fill="#F7F7FF"/>
</svg>
