<svg width="53" height="18" viewBox="0 0 53 18" fill="none" xmlns="http://www.w3.org/2000/svg">
<path d="M22.7462 16.7387H18.4648L21.1406 0.293846H25.4225L22.7462 16.7387ZM14.863 0.293846L10.7812 11.6047L10.2982 9.16905L10.2987 9.16993L8.85805 1.77451C8.85805 1.77451 8.68386 0.293846 6.82708 0.293846H0.0791802L0 0.572296C0 0.572296 2.06352 1.00163 4.47851 2.45194L8.19822 16.7391H12.6591L19.4708 0.293846H14.863ZM48.5387 16.7387H52.47L49.0424 0.293406H45.6007C44.0114 0.293406 43.6243 1.51894 43.6243 1.51894L37.2388 16.7387H41.702L42.5945 14.296H48.0372L48.5387 16.7387ZM43.8275 10.9216L46.0771 4.76752L47.3427 10.9216H43.8275ZM37.5736 4.24845L38.1846 0.717019C38.1846 0.717019 36.2992 0 34.3338 0C32.2091 0 27.1636 0.928606 27.1636 5.44407C27.1636 9.69252 33.0854 9.74531 33.0854 11.9769C33.0854 14.2084 27.7737 13.8086 26.0208 12.4014L25.3843 16.0938C25.3843 16.0938 27.296 17.0224 30.2169 17.0224C33.1386 17.0224 37.5463 15.5096 37.5463 11.3923C37.5463 7.11653 31.5713 6.71843 31.5713 4.85946C31.5717 3.00005 35.7414 3.2389 37.5736 4.24845Z" fill="#F7F7FF"/>
</svg>
