<svg width="482" height="138" viewBox="0 0 482 138" fill="none" xmlns="http://www.w3.org/2000/svg">
<path d="M56.2999 103.4C56.1093 103.604 55.8482 103.728 55.5697 103.746C55.2912 103.765 55.016 103.677 54.7999 103.5V38.4H48.3999V111.6H117.5C118.6 109.8 119.7 109.2 121.3 109.6C121.876 109.73 122.397 110.038 122.787 110.482C123.177 110.925 123.417 111.481 123.472 112.069C123.528 112.657 123.396 113.247 123.096 113.756C122.795 114.264 122.342 114.665 121.8 114.9C120.3 115.5 119 115.1 117.5 113.3H47.4999C46.3999 112.7 46.6999 111.9 46.6999 111.1V40.4C46.767 39.7321 46.7333 39.0579 46.5999 38.4H39.4999V103.2C39.2144 103.446 38.8786 103.628 38.516 103.731C38.1534 103.835 37.7726 103.858 37.3999 103.8H22.2999C20.9999 103.8 20.3999 103.3 20.3999 102.3C20.3999 101.3 21.0999 100.8 22.3999 100.8H35.2999C35.6787 100.878 36.0728 100.806 36.3999 100.6V38.5C35.9999 38.2 35.4999 38.4 34.9999 38.4C30.8999 38.3 26.7999 38.4 22.5999 38.4H21.3999C21.0464 38.3502 20.7252 38.1671 20.5021 37.8883C20.279 37.6094 20.1709 37.2559 20.1999 36.9C20.1863 36.7292 20.2066 36.5573 20.2596 36.3944C20.3126 36.2314 20.3973 36.0806 20.5088 35.9504C20.6203 35.8203 20.7564 35.7136 20.9094 35.6363C21.0623 35.559 21.229 35.5126 21.3999 35.5H82.6999C83.1067 35.5255 83.4884 35.7052 83.7672 36.0026C84.046 36.2999 84.2007 36.6924 84.1999 37.1C84.1764 37.4636 84.0214 37.8062 83.7637 38.0638C83.5061 38.3214 83.1635 38.4765 82.7999 38.5H81.5999C76.9999 38.5 72.3999 38.4 67.7999 38.5C67.2343 38.384 66.6481 38.4185 66.0999 38.6V100.6C66.6964 100.865 67.3613 100.935 67.9999 100.8H138C139.7 100.8 140 101.3 139.8 103.1C139.615 103.343 139.37 103.535 139.091 103.657C138.811 103.78 138.504 103.829 138.2 103.8H66.6999C65.4999 103.8 64.2999 104.3 63.0999 103.3V38.4H56.2999V103.4Z" fill="#191919"/>
<path d="M264 51.1H279.3C280.622 51.084 281.929 51.3842 283.112 51.9756C284.295 52.567 285.319 53.4325 286.1 54.5C288.4 57.6 288.1 63.4 284 65.8L283.4 66.3C284.598 66.7571 285.668 67.4953 286.521 68.4524C287.373 69.4096 287.984 70.5577 288.3 71.8C288.659 73.0111 288.729 74.2893 288.506 75.5326C288.282 76.7758 287.771 77.9495 287.013 78.96C286.256 79.9706 285.272 80.7898 284.141 81.3524C283.01 81.9149 281.763 82.2052 280.5 82.2H265.3C264.856 82.2742 264.401 82.2041 264 82V51.1Z" fill="#3ED9D7"/>
<path d="M159.9 51.2H165.4L179.9 75.8H180.1V51.2H184.3V82.2H178.7L164.3 57.7H164V82.2H159.9V51.2Z" fill="#191919"/>
<path d="M357.1 68.9H345.4C345.187 67.679 345.119 66.4369 345.2 65.2H361.6C362.8 70.9 359.1 79.1 351.1 81.7C343.1 84.3 334 81 330.7 72.7C329.109 68.9544 329.044 64.7353 330.52 60.9428C331.996 57.1504 334.896 54.0847 338.6 52.4C346.2 48.9 355.5 51.6 359.2 58.2C358.8 58.8 358.1 58.9 357.5 59.2C356.924 59.5862 356.279 59.8578 355.6 60C354.504 58.4408 353.053 57.1649 351.366 56.278C349.679 55.3912 347.806 54.9188 345.9 54.9C343.316 54.7636 340.767 55.5426 338.7 57.1C336.518 58.612 334.92 60.8269 334.174 63.3749C333.428 65.9228 333.578 68.6496 334.6 71.1C335.602 73.6664 337.47 75.8012 339.881 77.1346C342.292 78.4679 345.094 78.9155 347.8 78.4C352.3 77.7 356.8 73.2 357.1 68.9Z" fill="#3ED9D7"/>
<path d="M445.2 82.5C441.185 82.4348 437.345 80.843 434.461 78.0481C431.577 75.2533 429.865 71.4651 429.674 67.4536C429.483 63.4421 430.827 59.5084 433.432 56.4522C436.038 53.3959 439.709 51.4464 443.7 51C450 50.6 455.1 52.7 458.7 58C464.3 66.6 460.7 80.4 447.4 82.5C446.668 82.5498 445.933 82.5498 445.2 82.5Z" fill="#3ED9D7"/>
<path d="M137.5 82.5C135.425 82.4868 133.373 82.0652 131.461 81.259C129.549 80.4529 127.815 79.278 126.357 77.8016C124.899 76.3251 123.746 74.576 122.964 72.654C122.183 70.732 121.787 68.6749 121.8 66.6C121.813 64.5251 122.235 62.4731 123.041 60.5612C123.847 58.6493 125.022 56.9149 126.498 55.457C127.975 53.9991 129.724 52.8463 131.646 52.0644C133.568 51.2825 135.625 50.8868 137.7 50.9C148.1 51 153.8 58.9 153.8 66.8C153.8 74.7 146.8 82.5 137.5 82.5Z" fill="#191919"/>
<path d="M308.9 82.5C306.825 82.4803 304.774 82.0521 302.865 81.2399C300.956 80.4277 299.225 79.2473 297.772 77.7662C294.837 74.775 293.21 70.7405 293.25 66.55C293.29 62.3596 294.993 58.3566 297.984 55.4217C300.975 52.4867 305.01 50.8602 309.2 50.9C319.5 51 325.3 58.5 325.2 66.9C325.1 75.3 318 82.7 308.9 82.5Z" fill="#3ED9D7"/>
<path d="M397.4 51C402.6 51.3 407.7 50.5 412.8 51.6C415.88 52.2768 418.668 53.9068 420.768 56.2584C422.868 58.6101 424.174 61.5638 424.5 64.7C425.103 68.7037 424.094 72.7832 421.695 76.0446C419.296 79.3061 415.702 81.4835 411.7 82.1H397.3C397 80.7 397 52.7 397.4 51Z" fill="#3ED9D7"/>
<path d="M251.8 76H237.3C236.2 77.9 236 80.2 234.9 82.2H230.7C234.3 71.8 237.8 61.5 241.4 51.2H247.6L258.3 82.1C256.874 82.2833 255.433 82.3168 254 82.2C253.3 80.2 252.6 78.1 251.8 76Z" fill="#3ED9D7"/>
<path d="M370.4 76.1C369.6 78.1 368.9 80.1 368.2 82.1C366.774 82.2998 365.326 82.2998 363.9 82.1L374.6 51.2H380.8C384.3 61.4 387.8 71.7 391.5 82.1H387.2C386.3 80.2 385.8 78.1 385 76.1H370.4Z" fill="#3ED9D7"/>
<path d="M116.1 58.4L112.5 60.1C109.8 56.5 106.3 54.6 101.8 54.9C100.229 54.954 98.687 55.338 97.2743 56.0272C95.8615 56.7163 94.6096 57.6951 93.6 58.9C91.5477 61.2535 90.4936 64.3144 90.6616 67.4326C90.8297 70.5508 92.2066 73.4807 94.5 75.6C95.7963 76.7079 97.3088 77.5342 98.9414 78.0264C100.574 78.5186 102.291 78.666 103.984 78.4591C105.677 78.2522 107.308 77.6957 108.774 76.8247C110.24 75.9538 111.509 74.7875 112.5 73.4L116.2 75.1C113.1 80.9 105.3 83.9 98.3 82.1C94.8316 81.2177 91.7654 79.1839 89.6036 76.3317C87.4417 73.4795 86.3122 69.9778 86.4 66.4C86.4171 62.9282 87.5992 59.5627 89.757 56.8428C91.9147 54.123 94.9231 52.2063 98.3 51.4C106 49.5 113.3 53 116.1 58.4Z" fill="#191919"/>
<path d="M211.1 65.6C211.2 66.6977 211.2 67.8023 211.1 68.9H196.2V82.1H191.9V51.2H212.4C212.588 52.3235 212.622 53.4674 212.5 54.6H196.3V65.6H211.1Z" fill="#1A1A1A"/>
<path d="M82 22.6C82.2346 22.7393 82.4364 22.9276 82.5917 23.1519C82.747 23.3762 82.8522 23.6314 82.9 23.9C82.9026 24.1833 82.8298 24.4622 82.6893 24.7081C82.5487 24.9541 82.3454 25.1583 82.1 25.3C81.4556 25.5101 80.7733 25.5783 80.1 25.5H23.3C22.6 25.5 21.9 25.4 21.6 24.7C21.4236 24.3272 21.3978 23.9007 21.5283 23.5094C21.6587 23.1181 21.9352 22.7923 22.3 22.6H82Z" fill="#1B1B1B"/>
<path d="M224.2 82.2H220V51.3C221.3 50.8 222.7 51.2 224.2 51V82.2Z" fill="#1B1B1B"/>
<path d="M87.5 29.7C87.6833 29.8869 87.7859 30.1382 87.7859 30.4C87.7859 30.6617 87.6833 30.9131 87.5 31.1H16.8C16.7013 31.0084 16.6243 30.8958 16.5749 30.7705C16.5255 30.6452 16.5048 30.5104 16.5144 30.376C16.524 30.2417 16.5636 30.1112 16.6304 29.9942C16.6971 29.8772 16.7893 29.7766 16.9 29.7H87.5Z" fill="#212121"/>
<path d="M268.4 78.8V68.6L268.8 68.4H279.6C282.2 68.4 284.3 70.8 284.4 73.5C284.404 74.8125 283.911 76.078 283.021 77.0424C282.131 78.0069 280.909 78.599 279.6 78.7C275.9 78.9 272.2 78.8 268.4 78.8Z" fill="#F7F7FF"/>
<path d="M268.4 54.5H278.3C278.97 54.5114 279.631 54.6602 280.241 54.9371C280.851 55.2141 281.398 55.6133 281.848 56.11C282.298 56.6068 282.641 57.1906 282.857 57.8253C283.072 58.4599 283.155 59.1321 283.1 59.8C283.127 60.4649 283.021 61.1285 282.788 61.7518C282.554 62.3751 282.199 62.9456 281.743 63.4299C281.287 63.9142 280.738 64.3026 280.13 64.5722C279.521 64.8418 278.865 64.9872 278.2 65C275.5 65.1 272.8 65 270.1 65H268.4V54.5Z" fill="#F7F7FF"/>
<path d="M433.3 66.7C433.243 65.1266 433.513 63.5585 434.092 62.0945C434.671 60.6305 435.548 59.3023 436.666 58.1937C437.784 57.0851 439.119 56.2201 440.588 55.6533C442.057 55.0864 443.627 54.8299 445.2 54.9C446.749 54.8732 448.287 55.1568 449.724 55.7341C451.161 56.3113 452.468 57.1705 453.568 58.261C454.668 59.3515 455.538 60.6511 456.127 62.0833C456.717 63.5155 457.014 65.0513 457 66.6C457.014 68.175 456.712 69.7367 456.112 71.1932C455.513 72.6496 454.628 73.9713 453.509 75.0804C452.391 76.1894 451.062 77.0633 449.6 77.6506C448.139 78.2379 446.575 78.5267 445 78.5C438.8 78.6 432.9 73.3 433.3 66.7Z" fill="#F7F7FF"/>
<path d="M149.6 66.6C149.66 68.9937 149.002 71.3505 147.711 73.3672C146.42 75.384 144.556 76.9685 142.357 77.9169C140.158 78.8653 137.726 79.1343 135.374 78.6893C133.021 78.2443 130.855 77.1056 129.155 75.4197C127.454 73.7338 126.297 71.5778 125.832 69.2289C125.367 66.88 125.616 64.4458 126.545 62.2392C127.475 60.0326 129.043 58.1546 131.049 56.8467C133.055 55.5388 135.406 54.8608 137.8 54.9C140.904 54.9256 143.876 56.1634 146.08 58.3493C148.285 60.5351 149.548 63.4959 149.6 66.6Z" fill="#F7F7FF"/>
<path d="M309 78.5C307.43 78.5419 305.869 78.262 304.412 77.6775C302.955 77.093 301.632 76.2163 300.527 75.1014C299.421 73.9865 298.556 72.6571 297.984 71.195C297.412 69.7329 297.145 68.1691 297.2 66.6C297.3 59.8 302.3 54.8 309.4 54.9C310.945 54.8999 312.474 55.2058 313.901 55.8001C315.327 56.3943 316.621 57.265 317.709 58.3621C318.796 59.4592 319.656 60.7608 320.238 62.1919C320.82 63.6229 321.113 65.1551 321.1 66.7C321.1 68.2752 320.786 69.8345 320.174 71.286C319.562 72.7376 318.666 74.052 317.538 75.1517C316.411 76.2515 315.074 77.1143 313.608 77.6893C312.141 78.2644 310.575 78.54 309 78.5Z" fill="#F7F7FF"/>
<path d="M401.5 78.8V54.7C404.9 54.9 408.1 54.3 411.3 55.1C413.767 55.6467 415.986 56.991 417.613 58.9251C419.24 60.8592 420.184 63.2754 420.3 65.8C420.556 68.5326 419.86 71.2698 418.329 73.5478C416.798 75.8258 414.527 77.5047 411.9 78.3C410.932 78.6202 409.92 78.7888 408.9 78.8H401.5Z" fill="#F7F7FF"/>
<path d="M250.5 72.2H238.4C240.5 66.4 242.4 60.8 244.5 54.8L250.5 72.2Z" fill="#F7F7FF"/>
<path d="M377.8 55.3C379.8 60.9 381.7 66.5 383.7 72.2H371.7C373.6 66.5 375.6 60.9 377.5 55.3H377.8Z" fill="#F7F7FF"/>
</svg>
