<svg width="468" height="25" viewBox="0 0 468 25" fill="none" xmlns="http://www.w3.org/2000/svg">
<path d="M447.249 19.7543C368.442 23.3749 289.932 23.2725 211.035 21.2906C174.848 20.3816 138.661 19.2238 102.508 17.417C78.6317 16.2238 54.7719 14.5567 30.9736 12.2921C21.4115 11.3822 11.581 11.0135 2.49423 7.90023C-0.384497 6.91392 8.28469 5.80546 11.3176 5.55762C25.0519 4.4353 76.2939 5.04298 83.8152 5.06673C145.569 5.26171 207.308 5.13493 269.059 4.38778C329.781 3.65308 390.727 0.979727 451.461 2.14192C489.518 2.87017 439.939 8.34306 439.243 8.41722C309.45 22.2486 177.052 15.6683 46.7939 15.4217" stroke="#F48B63" stroke-width="3" stroke-linecap="round"/>
</svg>
